<?xml version="1.0" encoding="utf-8"?>
<!-- Generator: Adobe Illustrator 19.0.0, SVG Export Plug-In . SVG Version: 6.00 Build 0)  -->
<svg version="1.1" id="Warstwa_1" xmlns="http://www.w3.org/2000/svg" xmlns:xlink="http://www.w3.org/1999/xlink" x="0px" y="0px"
	 viewBox="-553 379.9 84 83" style="enable-background:new -553 379.9 84 83;" xml:space="preserve">
<style type="text/css">
	.st0{fill:#CDCDCD;fill-opacity:0;stroke:#777777;stroke-linejoin:round;}
	.st1{fill:#777777;}
</style>
<path class="st0" d="M-511,383.8c20.9,0,37.9,16.8,37.9,37.6s-17,37.6-37.9,37.6c-20.9,0-37.9-16.8-37.9-37.6
	S-531.9,383.8-511,383.8z"/>
<g>
	<g>
		<path class="st1" d="M-511.5,438.1h-3.5v-20h-2.9v-3h2.9v-2.1c0-6.6,1.7-8.4,6.2-8.4c1.6,0,4.6,0.3,4.6,0.3l0,2.9
			c0,0-2.6-0.1-4-0.1c-2.6,0-3.4,1.1-3.4,5.4v2h6.7v3h-6.7V438.1z"/>
	</g>
</g>
</svg>
