<?xml version="1.0" encoding="utf-8"?>
<!-- Generator: Adobe Illustrator 19.0.0, SVG Export Plug-In . SVG Version: 6.00 Build 0)  -->
<svg version="1.1" id="Warstwa_1" xmlns="http://www.w3.org/2000/svg" xmlns:xlink="http://www.w3.org/1999/xlink" x="0px" y="0px"
	 viewBox="-553 379.9 84 83" style="enable-background:new -553 379.9 84 83;" xml:space="preserve">
<style type="text/css">
	.st0{fill:#CDCDCD;fill-opacity:0;stroke:#777777;stroke-linejoin:round;}
	.st1{fill:#777777;}
</style>
<path class="st0" d="M-511,383.8c20.9,0,37.9,16.8,37.9,37.6s-17,37.6-37.9,37.6c-20.9,0-37.9-16.8-37.9-37.6
	S-531.9,383.8-511,383.8z"/>
<g>
	<g>
		<path class="st1" d="M-521.2,435.6c0-2.7,1.2-3.9,3.6-5.7c-0.8-0.6-1.3-1.7-1.3-3.2c0-0.9,1.6-3.6,1.6-3.6
			c-1.9-0.9-3.6-2.7-3.6-6.9c0-5.7,3.5-7.9,8.6-7.9c2.3,0,4.8,0.6,4.8,0.6l6.8-0.2v2.9l-4.4-0.1c0.9,0.9,1.5,2.2,1.5,4.6
			c0,6-3,7.8-8.9,7.8c-0.5,0-1.7-0.1-2.3-0.2c0,0-0.8,2-0.8,2.6c0,1.8,0.4,2.1,5.6,2.1c6.5,0,8.9,1.3,8.9,6.8
			c0,5.2-3.7,7.3-10.2,7.3C-518.6,442.5-521.2,440.9-521.2,435.6z M-515.3,431.3c-1.9,1.4-2.6,2.3-2.6,4c0,3.2,1.3,4.3,6.5,4.3
			c4.6,0,6.7-1.2,6.7-4.3c0-3.5-1.5-3.9-5.7-3.9C-511.9,431.5-515.3,431.3-515.3,431.3z M-507.1,416.1c0-3.6-1.4-5.1-5.3-5.1
			c-3.6,0-5.2,1.4-5.2,5.1s1.6,5,5.2,5C-508.5,421.1-507.1,419.8-507.1,416.1z"/>
	</g>
</g>
</svg>
