<?xml version="1.0" encoding="utf-8"?>
<!-- Generator: Adobe Illustrator 19.0.0, SVG Export Plug-In . SVG Version: 6.00 Build 0)  -->
<svg version="1.1" id="Warstwa_1" xmlns="http://www.w3.org/2000/svg" xmlns:xlink="http://www.w3.org/1999/xlink" x="0px" y="0px"
	 viewBox="-568.6 391.9 63.6 99.3" style="enable-background:new -568.6 391.9 63.6 99.3;" xml:space="preserve">
<style type="text/css">
	.st0{fill:#FFFFFF;}
</style>
<path class="st0" d="M-508.8,392.2c-0.3-0.2-0.6-0.3-1-0.3c-0.4,0-0.7,0.1-1,0.3l-54.4,36.2c-0.6,0.4-0.9,1-0.8,1.7
	c0.1,0.7,0.5,1.2,1.1,1.5l14.2,5.7l6.7,11.7c0.3,0.6,0.9,0.9,1.6,0.9c0,0,0,0,0,0c0.6,0,1.2-0.3,1.6-0.9l3.8-6.3l17.6,7
	c0.2,0.1,0.4,0.1,0.7,0.1c0.3,0,0.6-0.1,0.9-0.2c0.5-0.3,0.8-0.7,0.9-1.3l9.1-54.4C-507.9,393.3-508.2,392.6-508.8,392.2z
	 M-560.3,429.5l42-28l-30.5,32.7c-0.2-0.1-0.3-0.2-0.5-0.3L-560.3,429.5z M-547.5,435.5C-547.5,435.5-547.5,435.5-547.5,435.5
	l34.3-36.8l-29.3,45.6L-547.5,435.5z M-520.3,445.6l-15.5-6.2c-0.4-0.1-0.8-0.2-1.1-0.2l23.8-37L-520.3,445.6z"/>
<g>
	<path class="st0" d="M-558.9,488c0.1,0,0.2,0.1,0.3,0.2l1,1c-0.5,0.7-1.2,1.2-1.9,1.5s-1.7,0.5-2.8,0.5c-1,0-1.8-0.2-2.6-0.5
		s-1.4-0.8-2-1.4c-0.5-0.6-1-1.3-1.3-2.1s-0.4-1.7-0.4-2.7c0-1,0.2-1.9,0.5-2.7c0.3-0.8,0.8-1.5,1.4-2.1c0.6-0.6,1.3-1,2.1-1.4
		c0.8-0.3,1.7-0.5,2.7-0.5c1,0,1.8,0.2,2.5,0.5c0.7,0.3,1.3,0.7,1.9,1.2l-0.8,1.1c0,0.1-0.1,0.1-0.2,0.2c-0.1,0.1-0.2,0.1-0.3,0.1
		c-0.1,0-0.3-0.1-0.4-0.2c-0.1-0.1-0.3-0.2-0.5-0.4c-0.2-0.1-0.5-0.2-0.8-0.4c-0.3-0.1-0.8-0.2-1.3-0.2c-0.6,0-1.2,0.1-1.7,0.3
		c-0.5,0.2-1,0.5-1.3,0.9c-0.4,0.4-0.7,0.9-0.9,1.4c-0.2,0.6-0.3,1.2-0.3,1.9c0,0.7,0.1,1.4,0.3,2c0.2,0.6,0.5,1,0.8,1.4
		c0.4,0.4,0.8,0.7,1.3,0.9s1,0.3,1.5,0.3c0.3,0,0.6,0,0.9-0.1s0.5-0.1,0.7-0.2c0.2-0.1,0.4-0.2,0.6-0.3s0.4-0.3,0.6-0.5
		c0.1-0.1,0.1-0.1,0.2-0.1S-559,488-558.9,488z"/>
	<path class="st0" d="M-551.9,481.7c0.7,0,1.3,0.1,1.9,0.3s1,0.5,1.4,0.9c0.4,0.4,0.7,0.9,0.9,1.5c0.2,0.6,0.3,1.2,0.3,2
		c0,0.7-0.1,1.4-0.3,2c-0.2,0.6-0.5,1.1-0.9,1.5s-0.9,0.7-1.4,1s-1.2,0.3-1.9,0.3s-1.3-0.1-1.9-0.3s-1-0.5-1.4-1
		c-0.4-0.4-0.7-0.9-0.9-1.5s-0.3-1.2-0.3-2c0-0.7,0.1-1.4,0.3-2c0.2-0.6,0.5-1.1,0.9-1.5c0.4-0.4,0.9-0.7,1.4-0.9
		S-552.6,481.7-551.9,481.7z M-551.9,489.5c0.8,0,1.3-0.3,1.7-0.8c0.4-0.5,0.6-1.3,0.6-2.3s-0.2-1.8-0.6-2.3
		c-0.4-0.5-0.9-0.8-1.7-0.8c-0.8,0-1.4,0.3-1.7,0.8c-0.4,0.5-0.6,1.3-0.6,2.3s0.2,1.7,0.6,2.3C-553.3,489.2-552.7,489.5-551.9,489.5
		z"/>
	<path class="st0" d="M-545.7,491v-9.2h1.4c0.3,0,0.5,0.1,0.6,0.4l0.2,0.7c0.2-0.2,0.4-0.4,0.6-0.5s0.4-0.3,0.7-0.4
		c0.2-0.1,0.5-0.2,0.7-0.3c0.3-0.1,0.6-0.1,0.9-0.1c0.5,0,1,0.1,1.3,0.3c0.4,0.2,0.7,0.4,1,0.7c0.3,0.3,0.5,0.7,0.6,1.1
		c0.1,0.4,0.2,0.9,0.2,1.4v5.9h-2.2v-5.9c0-0.6-0.1-1-0.4-1.3c-0.3-0.3-0.7-0.5-1.2-0.5c-0.4,0-0.7,0.1-1.1,0.3
		c-0.3,0.2-0.7,0.4-1,0.7v6.7H-545.7z"/>
	<path class="st0" d="M-532.4,491.2c-0.8,0-1.4-0.2-1.8-0.7c-0.4-0.5-0.6-1.1-0.6-1.9v-5.2h-0.9c-0.1,0-0.2,0-0.3-0.1
		c-0.1-0.1-0.1-0.2-0.1-0.4v-0.9l1.5-0.2l0.5-2.5c0-0.1,0.1-0.2,0.2-0.3s0.2-0.1,0.3-0.1h1.2v2.9h2.4v1.6h-2.4v5
		c0,0.3,0.1,0.5,0.2,0.7c0.1,0.2,0.3,0.2,0.6,0.2c0.1,0,0.3,0,0.3,0s0.2-0.1,0.2-0.1c0.1,0,0.1-0.1,0.2-0.1c0.1,0,0.1,0,0.2,0
		c0.1,0,0.1,0,0.2,0s0.1,0.1,0.1,0.1l0.7,1.1c-0.3,0.3-0.7,0.5-1.1,0.6C-531.5,491.1-531.9,491.2-532.4,491.2z"/>
	<path class="st0" d="M-521.2,491h-1c-0.2,0-0.4,0-0.5-0.1c-0.1-0.1-0.2-0.2-0.3-0.4l-0.2-0.7c-0.2,0.2-0.5,0.4-0.7,0.6
		c-0.2,0.2-0.5,0.3-0.7,0.4c-0.2,0.1-0.5,0.2-0.8,0.2c-0.3,0.1-0.6,0.1-0.9,0.1c-0.4,0-0.8-0.1-1.1-0.2c-0.3-0.1-0.6-0.3-0.9-0.5
		c-0.2-0.2-0.4-0.5-0.6-0.8c-0.1-0.3-0.2-0.7-0.2-1.1c0-0.3,0.1-0.7,0.3-1c0.2-0.3,0.5-0.6,0.9-0.9c0.4-0.3,1-0.5,1.7-0.7
		s1.6-0.3,2.6-0.3v-0.5c0-0.6-0.1-1.1-0.4-1.4c-0.3-0.3-0.6-0.4-1.1-0.4c-0.4,0-0.7,0-0.9,0.1c-0.2,0.1-0.4,0.2-0.6,0.3
		c-0.2,0.1-0.3,0.2-0.5,0.3c-0.1,0.1-0.3,0.1-0.5,0.1c-0.1,0-0.3,0-0.4-0.1c-0.1-0.1-0.2-0.2-0.3-0.3l-0.4-0.7
		c1.1-1,2.3-1.5,3.8-1.5c0.5,0,1,0.1,1.4,0.3c0.4,0.2,0.8,0.4,1.1,0.7c0.3,0.3,0.5,0.7,0.7,1.1c0.2,0.4,0.2,0.9,0.2,1.4V491z
		 M-525.5,489.6c0.2,0,0.4,0,0.6-0.1c0.2,0,0.4-0.1,0.5-0.2c0.2-0.1,0.3-0.2,0.5-0.3s0.3-0.3,0.5-0.4v-1.5c-0.6,0-1.2,0-1.6,0.1
		c-0.4,0.1-0.8,0.2-1,0.3c-0.3,0.1-0.5,0.3-0.6,0.4c-0.1,0.2-0.2,0.4-0.2,0.6c0,0.4,0.1,0.7,0.3,0.8
		C-526.2,489.6-525.9,489.6-525.5,489.6z"/>
	<path class="st0" d="M-512.5,483.7c-0.1,0.1-0.1,0.2-0.2,0.2c-0.1,0-0.2,0.1-0.3,0.1c-0.1,0-0.2,0-0.3-0.1
		c-0.1-0.1-0.2-0.1-0.4-0.2c-0.2-0.1-0.3-0.2-0.5-0.2c-0.2-0.1-0.5-0.1-0.8-0.1c-0.4,0-0.7,0.1-1,0.2c-0.3,0.1-0.5,0.3-0.7,0.6
		c-0.2,0.3-0.3,0.6-0.4,1s-0.1,0.8-0.1,1.3c0,0.5,0.1,0.9,0.2,1.3c0.1,0.4,0.3,0.7,0.5,1s0.4,0.5,0.7,0.6c0.3,0.1,0.6,0.2,1,0.2
		c0.4,0,0.6,0,0.9-0.1c0.2-0.1,0.4-0.2,0.6-0.3c0.2-0.1,0.3-0.2,0.4-0.3s0.2-0.1,0.4-0.1c0.2,0,0.3,0.1,0.4,0.2l0.6,0.8
		c-0.2,0.3-0.5,0.5-0.8,0.7c-0.3,0.2-0.6,0.4-0.9,0.5c-0.3,0.1-0.6,0.2-1,0.2c-0.3,0-0.7,0.1-1,0.1c-0.6,0-1.1-0.1-1.6-0.3
		s-0.9-0.5-1.3-0.9s-0.7-0.9-0.9-1.5s-0.3-1.3-0.3-2c0-0.7,0.1-1.3,0.3-1.9c0.2-0.6,0.5-1.1,0.9-1.5c0.4-0.4,0.8-0.8,1.4-1
		c0.6-0.2,1.2-0.4,1.9-0.4c0.7,0,1.3,0.1,1.8,0.3c0.5,0.2,1,0.5,1.4,1L-512.5,483.7z"/>
	<path class="st0" d="M-507.4,491.2c-0.8,0-1.4-0.2-1.8-0.7s-0.6-1.1-0.6-1.9v-5.2h-0.9c-0.1,0-0.2,0-0.3-0.1
		c-0.1-0.1-0.1-0.2-0.1-0.4v-0.9l1.5-0.2l0.5-2.5c0-0.1,0.1-0.2,0.2-0.3s0.2-0.1,0.3-0.1h1.2v2.9h2.4v1.6h-2.4v5
		c0,0.3,0.1,0.5,0.2,0.7s0.3,0.2,0.6,0.2c0.1,0,0.3,0,0.3,0c0.1,0,0.2-0.1,0.2-0.1c0.1,0,0.1-0.1,0.2-0.1c0.1,0,0.1,0,0.2,0
		c0.1,0,0.1,0,0.2,0s0.1,0.1,0.1,0.1l0.7,1.1c-0.3,0.3-0.7,0.5-1.1,0.6C-506.5,491.1-507,491.2-507.4,491.2z"/>
</g>
</svg>
