<?xml version="1.0" encoding="utf-8"?>
<!-- Generator: Adobe Illustrator 19.0.0, SVG Export Plug-In . SVG Version: 6.00 Build 0)  -->
<svg version="1.1" id="Warstwa_1" xmlns="http://www.w3.org/2000/svg" xmlns:xlink="http://www.w3.org/1999/xlink" x="0px" y="0px"
	 viewBox="-1147.9 754.1 97.5 123.5" style="enable-background:new -1147.9 754.1 97.5 123.5;" xml:space="preserve">
<style type="text/css">
	.st0{fill:#FFFFFF;}
</style>
<path class="st0" d="M-1071.8,763.8c-0.3-0.2-0.6-0.3-1-0.3c-0.4,0-0.7,0.1-1,0.3l-54.4,36.2c-0.6,0.4-0.9,1-0.8,1.7
	c0.1,0.7,0.5,1.2,1.1,1.5l14.2,5.7l6.7,11.7c0.3,0.6,0.9,0.9,1.6,0.9l0,0c0.6,0,1.2-0.3,1.6-0.9l3.8-6.3l17.6,7
	c0.2,0.1,0.4,0.1,0.7,0.1c0.3,0,0.6-0.1,0.9-0.2c0.5-0.3,0.8-0.7,0.9-1.3l9.1-54.4C-1070.9,764.9-1071.2,764.2-1071.8,763.8z
	 M-1123.3,801.1l42-28l-30.5,32.7c-0.2-0.1-0.3-0.2-0.5-0.3L-1123.3,801.1z M-1110.5,807.1L-1110.5,807.1l34.3-36.8l-29.3,45.6
	L-1110.5,807.1z M-1083.3,817.2l-15.5-6.2c-0.4-0.1-0.8-0.2-1.1-0.2l23.8-37L-1083.3,817.2z"/>
<g>
	<path class="st0" d="M-1121.9,859.6c0.1,0,0.2,0.1,0.3,0.2l1,1c-0.5,0.7-1.2,1.2-1.9,1.5c-0.7,0.3-1.7,0.5-2.8,0.5
		c-1,0-1.8-0.2-2.6-0.5c-0.8-0.3-1.4-0.8-2-1.4c-0.5-0.6-1-1.3-1.3-2.1c-0.3-0.8-0.4-1.7-0.4-2.7s0.2-1.9,0.5-2.7
		c0.3-0.8,0.8-1.5,1.4-2.1s1.3-1,2.1-1.4c0.8-0.3,1.7-0.5,2.7-0.5s1.8,0.2,2.5,0.5c0.7,0.3,1.3,0.7,1.9,1.2l-0.8,1.1
		c0,0.1-0.1,0.1-0.2,0.2s-0.2,0.1-0.3,0.1s-0.3-0.1-0.4-0.2c-0.1-0.1-0.3-0.2-0.5-0.4c-0.2-0.1-0.5-0.2-0.8-0.4
		c-0.3-0.1-0.8-0.2-1.3-0.2c-0.6,0-1.2,0.1-1.7,0.3c-0.5,0.2-1,0.5-1.3,0.9c-0.4,0.4-0.7,0.9-0.9,1.4c-0.2,0.6-0.3,1.2-0.3,1.9
		s0.1,1.4,0.3,2c0.2,0.6,0.5,1,0.8,1.4c0.4,0.4,0.8,0.7,1.3,0.9s1,0.3,1.5,0.3c0.3,0,0.6,0,0.9-0.1c0.3-0.1,0.5-0.1,0.7-0.2
		c0.2-0.1,0.4-0.2,0.6-0.3s0.4-0.3,0.6-0.5c0.1-0.1,0.1-0.1,0.2-0.1C-1122,859.2-1122,859.6-1121.9,859.6z"/>
	<path class="st0" d="M-1114.9,853.3c0.7,0,1.3,0.1,1.9,0.3c0.6,0.2,1,0.5,1.4,0.9s0.7,0.9,0.9,1.5c0.2,0.6,0.3,1.2,0.3,2
		c0,0.7-0.1,1.4-0.3,2c-0.2,0.6-0.5,1.1-0.9,1.5s-0.9,0.7-1.4,1s-1.2,0.3-1.9,0.3c-0.7,0-1.3-0.1-1.9-0.3c-0.6-0.2-1-0.5-1.4-1
		c-0.4-0.4-0.7-0.9-0.9-1.5c-0.2-0.6-0.3-1.2-0.3-2c0-0.7,0.1-1.4,0.3-2c0.2-0.6,0.5-1.1,0.9-1.5s0.9-0.7,1.4-0.9
		C-1116.3,853.4-1115.6,853.3-1114.9,853.3z M-1114.9,861.1c0.8,0,1.3-0.3,1.7-0.8s0.6-1.3,0.6-2.3s-0.2-1.8-0.6-2.3
		s-0.9-0.8-1.7-0.8c-0.8,0-1.4,0.3-1.7,0.8c-0.4,0.5-0.6,1.3-0.6,2.3s0.2,1.7,0.6,2.3C-1116.3,860.8-1115.7,861.1-1114.9,861.1z"/>
	<path class="st0" d="M-1108.7,862.6v-9.2h1.4c0.3,0,0.5,0.1,0.6,0.4l0.2,0.7c0.2-0.2,0.4-0.4,0.6-0.5s0.4-0.3,0.7-0.4
		c0.2-0.1,0.5-0.2,0.7-0.3c0.3-0.1,0.6-0.1,0.9-0.1c0.5,0,1,0.1,1.3,0.3c0.4,0.2,0.7,0.4,1,0.7c0.3,0.3,0.5,0.7,0.6,1.1
		c0.1,0.4,0.2,0.9,0.2,1.4v5.9h-2.2v-5.9c0-0.6-0.1-1-0.4-1.3c-0.3-0.3-0.7-0.5-1.2-0.5c-0.4,0-0.7,0.1-1.1,0.3
		c-0.3,0.2-0.7,0.4-1,0.7v6.7L-1108.7,862.6L-1108.7,862.6z"/>
	<path class="st0" d="M-1095.4,862.8c-0.8,0-1.4-0.2-1.8-0.7s-0.6-1.1-0.6-1.9V855h-0.9c-0.1,0-0.2,0-0.3-0.1
		c-0.1-0.1-0.1-0.2-0.1-0.4v-0.9l1.5-0.2l0.5-2.5c0-0.1,0.1-0.2,0.2-0.3c0.1-0.1,0.2-0.1,0.3-0.1h1.2v2.9h2.4v1.6h-2.4v5
		c0,0.3,0.1,0.5,0.2,0.7c0.1,0.2,0.3,0.2,0.6,0.2c0.1,0,0.3,0,0.3,0l0.2-0.1c0.1,0,0.1-0.1,0.2-0.1s0.1,0,0.2,0c0.1,0,0.1,0,0.2,0
		c0.1,0,0.1,0.1,0.1,0.1l0.7,1.1c-0.3,0.3-0.7,0.5-1.1,0.6C-1094.5,862.7-1094.9,862.8-1095.4,862.8z"/>
	<path class="st0" d="M-1084.2,862.6h-1c-0.2,0-0.4,0-0.5-0.1s-0.2-0.2-0.3-0.4l-0.2-0.7c-0.2,0.2-0.5,0.4-0.7,0.6
		c-0.2,0.2-0.5,0.3-0.7,0.4c-0.2,0.1-0.5,0.2-0.8,0.2c-0.3,0.1-0.6,0.1-0.9,0.1c-0.4,0-0.8-0.1-1.1-0.2c-0.3-0.1-0.6-0.3-0.9-0.5
		c-0.2-0.2-0.4-0.5-0.6-0.8c-0.1-0.3-0.2-0.7-0.2-1.1c0-0.3,0.1-0.7,0.3-1c0.2-0.3,0.5-0.6,0.9-0.9s1-0.5,1.7-0.7
		c0.7-0.2,1.6-0.3,2.6-0.3v-0.5c0-0.6-0.1-1.1-0.4-1.4c-0.3-0.3-0.6-0.4-1.1-0.4c-0.4,0-0.7,0-0.9,0.1c-0.2,0.1-0.4,0.2-0.6,0.3
		s-0.3,0.2-0.5,0.3c-0.1,0.1-0.3,0.1-0.5,0.1c-0.1,0-0.3,0-0.4-0.1c-0.1-0.1-0.2-0.2-0.3-0.3l-0.4-0.7c1.1-1,2.3-1.5,3.8-1.5
		c0.5,0,1,0.1,1.4,0.3c0.4,0.2,0.8,0.4,1.1,0.7c0.3,0.3,0.5,0.7,0.7,1.1c0.2,0.4,0.2,0.9,0.2,1.4v6H-1084.2z M-1088.5,861.2
		c0.2,0,0.4,0,0.6-0.1c0.2,0,0.4-0.1,0.5-0.2c0.2-0.1,0.3-0.2,0.5-0.3c0.2-0.1,0.3-0.3,0.5-0.4v-1.5c-0.6,0-1.2,0-1.6,0.1
		c-0.4,0.1-0.8,0.2-1,0.3c-0.3,0.1-0.5,0.3-0.6,0.4c-0.1,0.2-0.2,0.4-0.2,0.6c0,0.4,0.1,0.7,0.3,0.8
		C-1089.2,861.2-1088.9,861.2-1088.5,861.2z"/>
	<path class="st0" d="M-1075.5,855.3c-0.1,0.1-0.1,0.2-0.2,0.2c-0.1,0-0.2,0.1-0.3,0.1s-0.2,0-0.3-0.1c-0.1-0.1-0.2-0.1-0.4-0.2
		c-0.2-0.1-0.3-0.2-0.5-0.2c-0.2-0.1-0.5-0.1-0.8-0.1c-0.4,0-0.7,0.1-1,0.2c-0.3,0.1-0.5,0.3-0.7,0.6c-0.2,0.3-0.3,0.6-0.4,1
		c-0.1,0.4-0.1,0.8-0.1,1.3s0.1,0.9,0.2,1.3c0.1,0.4,0.3,0.7,0.5,1c0.2,0.3,0.4,0.5,0.7,0.6c0.3,0.1,0.6,0.2,1,0.2s0.6,0,0.9-0.1
		c0.2-0.1,0.4-0.2,0.6-0.3c0.2-0.1,0.3-0.2,0.4-0.3c0.1-0.1,0.2-0.1,0.4-0.1c0.2,0,0.3,0.1,0.4,0.2l0.6,0.8
		c-0.2,0.3-0.5,0.5-0.8,0.7s-0.6,0.4-0.9,0.5s-0.6,0.2-1,0.2c-0.3,0-0.7,0.1-1,0.1c-0.6,0-1.1-0.1-1.6-0.3c-0.5-0.2-0.9-0.5-1.3-0.9
		c-0.4-0.4-0.7-0.9-0.9-1.5c-0.2-0.6-0.3-1.3-0.3-2s0.1-1.3,0.3-1.9c0.2-0.6,0.5-1.1,0.9-1.5c0.4-0.4,0.8-0.8,1.4-1
		c0.6-0.2,1.2-0.4,1.9-0.4c0.7,0,1.3,0.1,1.8,0.3c0.5,0.2,1,0.5,1.4,1L-1075.5,855.3z"/>
	<path class="st0" d="M-1070.4,862.8c-0.8,0-1.4-0.2-1.8-0.7c-0.4-0.5-0.6-1.1-0.6-1.9V855h-0.9c-0.1,0-0.2,0-0.3-0.1
		c-0.1-0.1-0.1-0.2-0.1-0.4v-0.9l1.5-0.2l0.5-2.5c0-0.1,0.1-0.2,0.2-0.3c0.1-0.1,0.2-0.1,0.3-0.1h1.2v2.9h2.4v1.6h-2.4v5
		c0,0.3,0.1,0.5,0.2,0.7s0.3,0.2,0.6,0.2c0.1,0,0.3,0,0.3,0c0.1,0,0.2-0.1,0.2-0.1c0.1,0,0.1-0.1,0.2-0.1c0.1,0,0.1,0,0.2,0
		s0.1,0,0.2,0c0.1,0,0.1,0.1,0.1,0.1l0.7,1.1c-0.3,0.3-0.7,0.5-1.1,0.6C-1069.5,862.7-1070,862.8-1070.4,862.8z"/>
</g>
</svg>
