<?xml version="1.0" encoding="utf-8"?>
<!-- Generator: Adobe Illustrator 19.0.0, SVG Export Plug-In . SVG Version: 6.00 Build 0)  -->
<svg version="1.1" id="Warstwa_1" xmlns="http://www.w3.org/2000/svg" xmlns:xlink="http://www.w3.org/1999/xlink" x="0px" y="0px"
	 viewBox="-566 391.9 58 102.4" style="enable-background:new -566 391.9 58 102.4;" xml:space="preserve">
<style type="text/css">
	.st0{fill:#FFFFFF;}
</style>
<path class="st0" d="M-512.7,396.6c-3-3-6.9-4.7-10.8-4.7c-3.3,0-6.3,1.2-8.5,3.4l-8.8,8.9c0,0-0.1,0-0.1,0.1c0,0,0,0,0,0l0,0
	l-18.7,18.9c-0.9,0.9-1.5,1.9-1.8,3.1l-4.3,15.4c0,0-0.3,1.3-0.3,1.9c0,3.5,2.8,6.3,6.4,6.3c0.7,0,2-0.3,2.1-0.3l15.4-4
	c1.2-0.3,2.2-1,3.1-1.8l27.7-27.9C-506.4,410.8-507,402.3-512.7,396.6z M-537,435c-0.1-1.6-0.6-3.2-1.3-4.8l17.1-17.1
	c1,3.3,0.5,6.8-1.8,9.1c0,0,0,0,0,0l0,0l-14,14.1C-537,435.9-536.9,435.5-537,435z M-539.2,428.6c-0.7-1.1-1.4-2.2-2.4-3.1
	c-1.1-1.1-2.4-2-3.7-2.7l17.3-17.3c1.4,0.6,2.7,1.5,3.8,2.6c1,1,1.7,2.1,2.3,3.2L-539.2,428.6z M-547,421.9
	c-1.7-0.7-3.4-1.1-5.2-1.1l14-14.1c2.1-2.1,5.2-2.7,8.3-1.9L-547,421.9z M-558.4,446c-0.2,0-0.8,0.2-1.2,0.2c-1.5,0-2.7-1.2-2.7-2.7
	c0-0.3,0.1-0.8,0.2-1l1.9-6.9c2.1-0.1,4.3,0.8,6.1,2.5c1.8,1.8,2.6,4.1,2.5,6.1L-558.4,446z M-549.9,443.8c0-2.4-1-5-3-7
	c-1.9-1.9-4.4-3-6.8-3.1l1.8-6.5c0.1-0.4,0.4-0.9,0.7-1.2c3.6-2.6,9.2-1.8,13.1,2.1c4.1,4.1,4.7,10.1,1.6,13.7
	c-0.2,0.1-0.4,0.2-0.7,0.3L-549.9,443.8z M-514,413.2l-3.1,3.1c0-0.4,0-0.8,0-1.2c-0.3-3.5-2-6.9-4.6-9.5c-3-3-6.9-4.7-10.7-4.7l3-3
	c1.5-1.5,3.6-2.3,5.9-2.3c2.9,0,5.9,1.3,8.2,3.6c2.2,2.2,3.5,4.8,3.6,7.6C-511.5,409.2-512.3,411.5-514,413.2z"/>
<g>
	<path class="st0" d="M-555,491v-13h4.5c0.9,0,1.6,0.1,2.2,0.2c0.6,0.2,1.1,0.4,1.5,0.7c0.4,0.3,0.7,0.7,0.9,1.1
		c0.2,0.4,0.3,0.9,0.3,1.4c0,0.3,0,0.6-0.1,0.9c-0.1,0.3-0.2,0.5-0.4,0.8s-0.4,0.5-0.7,0.7c-0.3,0.2-0.6,0.4-1,0.5
		c1.8,0.4,2.7,1.4,2.7,2.9c0,0.6-0.1,1.1-0.3,1.5s-0.5,0.9-0.9,1.2c-0.4,0.3-0.9,0.6-1.5,0.8c-0.6,0.2-1.3,0.3-2,0.3H-555z
		 M-552.6,483.7h1.9c0.8,0,1.4-0.2,1.9-0.5c0.4-0.3,0.6-0.8,0.6-1.4c0-0.7-0.2-1.2-0.6-1.4s-1-0.4-1.8-0.4h-2.1V483.7z
		 M-552.6,485.3v3.8h2.5c0.5,0,0.8-0.1,1.1-0.2c0.3-0.1,0.5-0.3,0.7-0.4c0.2-0.2,0.3-0.4,0.4-0.6c0.1-0.2,0.1-0.5,0.1-0.8
		c0-0.3,0-0.5-0.1-0.8c-0.1-0.2-0.2-0.4-0.4-0.6c-0.2-0.2-0.4-0.3-0.7-0.4c-0.3-0.1-0.7-0.1-1.1-0.1H-552.6z"/>
	<path class="st0" d="M-541.1,477.7V491h-2.2v-13.4H-541.1z"/>
	<path class="st0" d="M-534.6,481.7c0.7,0,1.3,0.1,1.9,0.3c0.6,0.2,1,0.5,1.4,0.9c0.4,0.4,0.7,0.9,0.9,1.5c0.2,0.6,0.3,1.2,0.3,2
		c0,0.7-0.1,1.4-0.3,2s-0.5,1.1-0.9,1.5c-0.4,0.4-0.9,0.7-1.4,1c-0.6,0.2-1.2,0.3-1.9,0.3c-0.7,0-1.3-0.1-1.9-0.3
		c-0.6-0.2-1-0.5-1.4-1c-0.4-0.4-0.7-0.9-0.9-1.5s-0.3-1.2-0.3-2c0-0.7,0.1-1.4,0.3-2c0.2-0.6,0.5-1.1,0.9-1.5
		c0.4-0.4,0.9-0.7,1.4-0.9C-535.9,481.8-535.3,481.7-534.6,481.7z M-534.6,489.5c0.8,0,1.3-0.3,1.7-0.8c0.4-0.5,0.6-1.3,0.6-2.3
		s-0.2-1.8-0.6-2.3c-0.4-0.5-0.9-0.8-1.7-0.8c-0.8,0-1.4,0.3-1.7,0.8c-0.4,0.5-0.6,1.3-0.6,2.3s0.2,1.7,0.6,2.3
		C-536,489.2-535.4,489.5-534.6,489.5z"/>
	<path class="st0" d="M-525.1,481.6c0.4,0,0.8,0,1.1,0.1s0.7,0.2,1,0.4h2.7v0.8c0,0.1,0,0.2-0.1,0.3c-0.1,0.1-0.2,0.1-0.4,0.2
		l-0.8,0.2c0.1,0.2,0.1,0.3,0.1,0.5c0,0.2,0,0.4,0,0.5c0,0.5-0.1,0.9-0.3,1.2c-0.2,0.4-0.4,0.7-0.8,0.9c-0.3,0.3-0.7,0.5-1.1,0.6
		c-0.4,0.1-0.9,0.2-1.4,0.2c-0.3,0-0.7,0-1-0.1c-0.3,0.2-0.4,0.4-0.4,0.6c0,0.2,0.1,0.3,0.3,0.4c0.2,0.1,0.4,0.1,0.7,0.2
		c0.3,0,0.6,0.1,0.9,0.1c0.4,0,0.7,0,1.1,0c0.4,0,0.7,0.1,1.1,0.2s0.7,0.2,0.9,0.4c0.3,0.2,0.5,0.4,0.7,0.7c0.2,0.3,0.3,0.6,0.3,1.1
		c0,0.4-0.1,0.8-0.3,1.2c-0.2,0.4-0.5,0.7-0.9,1c-0.4,0.3-0.8,0.5-1.4,0.7c-0.6,0.2-1.2,0.3-1.9,0.3c-0.7,0-1.3-0.1-1.8-0.2
		c-0.5-0.1-0.9-0.3-1.3-0.5c-0.3-0.2-0.6-0.5-0.8-0.8s-0.3-0.6-0.3-0.9c0-0.4,0.1-0.8,0.4-1.1c0.3-0.3,0.6-0.5,1.1-0.7
		c-0.2-0.1-0.4-0.3-0.5-0.5c-0.1-0.2-0.2-0.5-0.2-0.8c0-0.1,0-0.3,0.1-0.4c0-0.1,0.1-0.3,0.2-0.4c0.1-0.1,0.2-0.3,0.4-0.4
		c0.1-0.1,0.3-0.2,0.5-0.3c-0.5-0.3-0.8-0.6-1.1-1c-0.3-0.4-0.4-0.9-0.4-1.5c0-0.5,0.1-0.9,0.3-1.2c0.2-0.4,0.4-0.7,0.8-0.9
		c0.3-0.3,0.7-0.5,1.2-0.6C-526.1,481.7-525.7,481.6-525.1,481.6z M-522.7,491.4c0-0.2-0.1-0.3-0.2-0.5s-0.3-0.2-0.4-0.3
		c-0.2-0.1-0.4-0.1-0.7-0.1c-0.2,0-0.5,0-0.8,0c-0.3,0-0.6,0-0.9,0c-0.3,0-0.6,0-0.9-0.1c-0.3,0.1-0.5,0.3-0.6,0.5
		c-0.2,0.2-0.2,0.4-0.2,0.7c0,0.2,0,0.3,0.1,0.5s0.2,0.3,0.4,0.4c0.2,0.1,0.4,0.2,0.7,0.2c0.3,0.1,0.6,0.1,1,0.1
		c0.4,0,0.8,0,1.1-0.1c0.3-0.1,0.5-0.2,0.7-0.3s0.3-0.2,0.4-0.4S-522.7,491.6-522.7,491.4z M-525.1,486.2c0.3,0,0.5,0,0.7-0.1
		c0.2-0.1,0.4-0.2,0.5-0.3c0.1-0.1,0.2-0.3,0.3-0.5c0.1-0.2,0.1-0.4,0.1-0.6c0-0.5-0.1-0.8-0.4-1.1c-0.3-0.3-0.7-0.4-1.2-0.4
		s-1,0.1-1.2,0.4c-0.3,0.3-0.4,0.6-0.4,1.1c0,0.2,0,0.4,0.1,0.6s0.2,0.3,0.3,0.5c0.1,0.1,0.3,0.2,0.5,0.3
		C-525.6,486.2-525.4,486.2-525.1,486.2z"/>
</g>
</svg>
