<?xml version="1.0" encoding="utf-8"?>
<!-- Generator: Adobe Illustrator 19.0.0, SVG Export Plug-In . SVG Version: 6.00 Build 0)  -->
<svg version="1.1" id="Warstwa_1" xmlns="http://www.w3.org/2000/svg" xmlns:xlink="http://www.w3.org/1999/xlink" x="0px" y="0px"
	 viewBox="-1151.9 751.5 97.5 123.5" style="enable-background:new -1151.9 751.5 97.5 123.5;" xml:space="preserve">
<style type="text/css">
	.st0{fill:#FFFFFF;}
</style>
<path class="st0" d="M-1078.9,766.1c-3-3-6.9-4.7-10.8-4.7c-3.3,0-6.3,1.2-8.5,3.4l-8.8,8.9c0,0-0.1,0-0.1,0.1l0,0l0,0l-18.7,18.9
	c-0.9,0.9-1.5,1.9-1.8,3.1l-4.3,15.4c0,0-0.3,1.3-0.3,1.9c0,3.5,2.8,6.3,6.4,6.3c0.7,0,2-0.3,2.1-0.3l15.4-4c1.2-0.3,2.2-1,3.1-1.8
	l27.7-27.9C-1072.6,780.3-1073.2,771.8-1078.9,766.1z M-1103.2,804.5c-0.1-1.6-0.6-3.2-1.3-4.8l17.1-17.1c1,3.3,0.5,6.8-1.8,9.1l0,0
	l0,0l-14,14.1C-1103.2,805.4-1103.1,805-1103.2,804.5z M-1105.4,798.1c-0.7-1.1-1.4-2.2-2.4-3.1c-1.1-1.1-2.4-2-3.7-2.7l17.3-17.3
	c1.4,0.6,2.7,1.5,3.8,2.6c1,1,1.7,2.1,2.3,3.2L-1105.4,798.1z M-1113.2,791.4c-1.7-0.7-3.4-1.1-5.2-1.1l14-14.1
	c2.1-2.1,5.2-2.7,8.3-1.9L-1113.2,791.4z M-1124.6,815.5c-0.2,0-0.8,0.2-1.2,0.2c-1.5,0-2.7-1.2-2.7-2.7c0-0.3,0.1-0.8,0.2-1
	l1.9-6.9c2.1-0.1,4.3,0.8,6.1,2.5c1.8,1.8,2.6,4.1,2.5,6.1L-1124.6,815.5z M-1116.1,813.3c0-2.4-1-5-3-7c-1.9-1.9-4.4-3-6.8-3.1
	l1.8-6.5c0.1-0.4,0.4-0.9,0.7-1.2c3.6-2.6,9.2-1.8,13.1,2.1c4.1,4.1,4.7,10.1,1.6,13.7c-0.2,0.1-0.4,0.2-0.7,0.3L-1116.1,813.3z
	 M-1080.2,782.7l-3.1,3.1c0-0.4,0-0.8,0-1.2c-0.3-3.5-2-6.9-4.6-9.5c-3-3-6.9-4.7-10.7-4.7l3-3c1.5-1.5,3.6-2.3,5.9-2.3
	c2.9,0,5.9,1.3,8.2,3.6c2.2,2.2,3.5,4.8,3.6,7.6C-1077.7,778.7-1078.5,781-1080.2,782.7z"/>
<g>
	<path class="st0" d="M-1120.5,860.5v-13h4.5c0.9,0,1.6,0.1,2.2,0.2c0.6,0.2,1.1,0.4,1.5,0.7s0.7,0.7,0.9,1.1
		c0.2,0.4,0.3,0.9,0.3,1.4c0,0.3,0,0.6-0.1,0.9s-0.2,0.5-0.4,0.8c-0.2,0.3-0.4,0.5-0.7,0.7c-0.3,0.2-0.6,0.4-1,0.5
		c1.8,0.4,2.7,1.4,2.7,2.9c0,0.6-0.1,1.1-0.3,1.5c-0.2,0.4-0.5,0.9-0.9,1.2s-0.9,0.6-1.5,0.8c-0.6,0.2-1.3,0.3-2,0.3H-1120.5z
		 M-1118.1,853.2h1.9c0.8,0,1.4-0.2,1.9-0.5c0.4-0.3,0.6-0.8,0.6-1.4c0-0.7-0.2-1.2-0.6-1.4c-0.4-0.2-1-0.4-1.8-0.4h-2.1
		L-1118.1,853.2L-1118.1,853.2z M-1118.1,854.8v3.8h2.5c0.5,0,0.8-0.1,1.1-0.2c0.3-0.1,0.5-0.3,0.7-0.4c0.2-0.2,0.3-0.4,0.4-0.6
		s0.1-0.5,0.1-0.8s0-0.5-0.1-0.8c-0.1-0.2-0.2-0.4-0.4-0.6c-0.2-0.2-0.4-0.3-0.7-0.4c-0.3-0.1-0.7-0.1-1.1-0.1L-1118.1,854.8
		L-1118.1,854.8z"/>
	<path class="st0" d="M-1106.6,847.2v13.3h-2.2v-13.4L-1106.6,847.2L-1106.6,847.2z"/>
	<path class="st0" d="M-1100.1,851.2c0.7,0,1.3,0.1,1.9,0.3c0.6,0.2,1,0.5,1.4,0.9c0.4,0.4,0.7,0.9,0.9,1.5c0.2,0.6,0.3,1.2,0.3,2
		c0,0.7-0.1,1.4-0.3,2c-0.2,0.6-0.5,1.1-0.9,1.5c-0.4,0.4-0.9,0.7-1.4,1c-0.6,0.2-1.2,0.3-1.9,0.3c-0.7,0-1.3-0.1-1.9-0.3
		c-0.6-0.2-1-0.5-1.4-1c-0.4-0.4-0.7-0.9-0.9-1.5c-0.2-0.6-0.3-1.2-0.3-2c0-0.7,0.1-1.4,0.3-2c0.2-0.6,0.5-1.1,0.9-1.5
		c0.4-0.4,0.9-0.7,1.4-0.9C-1101.4,851.3-1100.8,851.2-1100.1,851.2z M-1100.1,859c0.8,0,1.3-0.3,1.7-0.8s0.6-1.3,0.6-2.3
		s-0.2-1.8-0.6-2.3s-0.9-0.8-1.7-0.8c-0.8,0-1.4,0.3-1.7,0.8c-0.4,0.5-0.6,1.3-0.6,2.3s0.2,1.7,0.6,2.3
		C-1101.5,858.7-1100.9,859-1100.1,859z"/>
	<path class="st0" d="M-1090.6,851.1c0.4,0,0.8,0,1.1,0.1c0.3,0.1,0.7,0.2,1,0.4h2.7v0.8c0,0.1,0,0.2-0.1,0.3s-0.2,0.1-0.4,0.2
		l-0.8,0.2c0.1,0.2,0.1,0.3,0.1,0.5s0,0.4,0,0.5c0,0.5-0.1,0.9-0.3,1.2c-0.2,0.4-0.4,0.7-0.8,0.9c-0.3,0.3-0.7,0.5-1.1,0.6
		c-0.4,0.1-0.9,0.2-1.4,0.2c-0.3,0-0.7,0-1-0.1c-0.3,0.2-0.4,0.4-0.4,0.6s0.1,0.3,0.3,0.4c0.2,0.1,0.4,0.1,0.7,0.2
		c0.3,0,0.6,0.1,0.9,0.1c0.4,0,0.7,0,1.1,0s0.7,0.1,1.1,0.2c0.4,0.1,0.7,0.2,0.9,0.4c0.3,0.2,0.5,0.4,0.7,0.7
		c0.2,0.3,0.3,0.6,0.3,1.1c0,0.4-0.1,0.8-0.3,1.2c-0.2,0.4-0.5,0.7-0.9,1s-0.8,0.5-1.4,0.7c-0.6,0.2-1.2,0.3-1.9,0.3
		c-0.7,0-1.3-0.1-1.8-0.2c-0.5-0.1-0.9-0.3-1.3-0.5c-0.3-0.2-0.6-0.5-0.8-0.8c-0.2-0.3-0.3-0.6-0.3-0.9c0-0.4,0.1-0.8,0.4-1.1
		s0.6-0.5,1.1-0.7c-0.2-0.1-0.4-0.3-0.5-0.5s-0.2-0.5-0.2-0.8c0-0.1,0-0.3,0.1-0.4c0-0.1,0.1-0.3,0.2-0.4c0.1-0.1,0.2-0.3,0.4-0.4
		c0.1-0.1,0.3-0.2,0.5-0.3c-0.5-0.3-0.8-0.6-1.1-1c-0.3-0.4-0.4-0.9-0.4-1.5c0-0.5,0.1-0.9,0.3-1.2c0.2-0.4,0.4-0.7,0.8-0.9
		c0.3-0.3,0.7-0.5,1.2-0.6C-1091.6,851.2-1091.2,851.1-1090.6,851.1z M-1088.2,860.9c0-0.2-0.1-0.3-0.2-0.5
		c-0.1-0.2-0.3-0.2-0.4-0.3c-0.2-0.1-0.4-0.1-0.7-0.1c-0.2,0-0.5,0-0.8,0c-0.3,0-0.6,0-0.9,0s-0.6,0-0.9-0.1
		c-0.3,0.1-0.5,0.3-0.6,0.5c-0.2,0.2-0.2,0.4-0.2,0.7c0,0.2,0,0.3,0.1,0.5s0.2,0.3,0.4,0.4c0.2,0.1,0.4,0.2,0.7,0.2
		c0.3,0.1,0.6,0.1,1,0.1s0.8,0,1.1-0.1c0.3-0.1,0.5-0.2,0.7-0.3c0.2-0.1,0.3-0.2,0.4-0.4C-1088.4,861.3-1088.2,861.1-1088.2,860.9z
		 M-1090.6,855.7c0.3,0,0.5,0,0.7-0.1c0.2-0.1,0.4-0.2,0.5-0.3c0.1-0.1,0.2-0.3,0.3-0.5s0.1-0.4,0.1-0.6c0-0.5-0.1-0.8-0.4-1.1
		s-0.7-0.4-1.2-0.4s-1,0.1-1.2,0.4c-0.3,0.3-0.4,0.6-0.4,1.1c0,0.2,0,0.4,0.1,0.6s0.2,0.3,0.3,0.5c0.1,0.1,0.3,0.2,0.5,0.3
		C-1091.1,855.7-1090.9,855.7-1090.6,855.7z"/>
</g>
</svg>
