<?xml version="1.0" encoding="utf-8"?>
<!-- Generator: Adobe Illustrator 19.0.0, SVG Export Plug-In . SVG Version: 6.00 Build 0)  -->
<svg version="1.1" id="Warstwa_1" xmlns="http://www.w3.org/2000/svg" xmlns:xlink="http://www.w3.org/1999/xlink" x="0px" y="0px"
	 viewBox="-1154 756.4 97.5 123.5" style="enable-background:new -1154 756.4 97.5 123.5;" xml:space="preserve">
<style type="text/css">
	.st0{fill:#FFFFFF;}
</style>
<path class="st0" d="M-1087,821.5h-36.5c-3.7,0-6.6-3-6.6-6.6v-39.8c0-3.7,3-6.6,6.6-6.6h36.5c3.7,0,6.6,3,6.6,6.6v39.8
	C-1080.3,818.5-1083.3,821.5-1087,821.5z M-1083.7,775.1c0-1.8-1.5-3.3-3.3-3.3h-36.5c-1.8,0-3.3,1.5-3.3,3.3v39.8
	c0,1.8,1.5,3.3,3.3,3.3h36.5c1.8,0,3.3-1.5,3.3-3.3V775.1z M-1088.7,808.2h-33.1c-0.9,0-1.7-0.7-1.7-1.7v-29.8
	c0-0.9,0.7-1.7,1.7-1.7h33.1c0.9,0,1.7,0.7,1.7,1.7v29.9C-1087,807.5-1087.8,808.2-1088.7,808.2z M-1121.8,806.6h25.5l-4.6-5.3
	l-1-1.1l-13.4-15.1l-6.6,7.6L-1121.8,806.6L-1121.8,806.6z M-1088.7,776.7h-33.1v13.4l5.4-6.2c0.3-0.4,0.8-0.6,1.2-0.6
	c0.5,0,0.9,0.2,1.2,0.6l13.1,14.8l4.3-4.9c0.3-0.4,0.8-0.6,1.2-0.6c0.5,0,0.9,0.2,1.2,0.6l5.4,5.9L-1088.7,776.7L-1088.7,776.7z
	 M-1088.7,802.2l-6.6-7.3l-4.5,5l5.7,6.6h5.4L-1088.7,802.2L-1088.7,802.2z M-1098.6,790c-2.7,0-5-2.2-5-5s2.2-5,5-5
	c2.7,0,5,2.2,5,5S-1095.8,790-1098.6,790z M-1098.6,781.7c-1.8,0-3.3,1.5-3.3,3.3s1.5,3.3,3.3,3.3c1.8,0,3.3-1.5,3.3-3.3
	S-1096.8,781.7-1098.6,781.7z"/>
<g>
	<path class="st0" d="M-1137.8,858v4.6h-2.4v-13h4.2c0.9,0,1.6,0.1,2.3,0.3c0.6,0.2,1.2,0.5,1.6,0.9c0.4,0.4,0.7,0.8,0.9,1.3
		c0.2,0.5,0.3,1.1,0.3,1.7c0,0.6-0.1,1.2-0.3,1.7c-0.2,0.5-0.5,1-0.9,1.4c-0.4,0.4-0.9,0.7-1.6,0.9c-0.6,0.2-1.4,0.3-2.2,0.3
		L-1137.8,858L-1137.8,858z M-1137.8,856.2h1.8c0.4,0,0.8-0.1,1.2-0.2c0.3-0.1,0.6-0.3,0.8-0.5c0.2-0.2,0.4-0.5,0.5-0.8
		s0.2-0.6,0.2-1c0-0.3-0.1-0.7-0.2-0.9c-0.1-0.3-0.3-0.5-0.5-0.7c-0.2-0.2-0.5-0.3-0.8-0.5c-0.3-0.1-0.7-0.2-1.2-0.2h-1.8V856.2z"/>
	<path class="st0" d="M-1125.5,853.3c0.7,0,1.3,0.1,1.9,0.3c0.6,0.2,1,0.5,1.4,0.9c0.4,0.4,0.7,0.9,0.9,1.5c0.2,0.6,0.3,1.2,0.3,2
		c0,0.7-0.1,1.4-0.3,2c-0.2,0.6-0.5,1.1-0.9,1.5c-0.4,0.4-0.9,0.7-1.4,1s-1.2,0.3-1.9,0.3c-0.7,0-1.3-0.1-1.9-0.3
		c-0.6-0.2-1-0.5-1.4-1c-0.4-0.4-0.7-0.9-0.9-1.5c-0.2-0.6-0.3-1.2-0.3-2c0-0.7,0.1-1.4,0.3-2c0.2-0.6,0.5-1.1,0.9-1.5
		c0.4-0.4,0.9-0.7,1.4-0.9C-1126.9,853.4-1126.2,853.3-1125.5,853.3z M-1125.5,861.1c0.8,0,1.3-0.3,1.7-0.8s0.6-1.3,0.6-2.3
		s-0.2-1.8-0.6-2.3s-0.9-0.8-1.7-0.8c-0.8,0-1.4,0.3-1.7,0.8c-0.4,0.5-0.6,1.3-0.6,2.3s0.2,1.7,0.6,2.3
		C-1126.8,860.8-1126.2,861.1-1125.5,861.1z"/>
	<path class="st0" d="M-1119.2,862.6v-9.2h1.3c0.2,0,0.4,0,0.5,0.1c0.1,0.1,0.1,0.2,0.2,0.4l0.1,1.1c0.3-0.6,0.7-1,1.2-1.4
		c0.4-0.3,0.9-0.5,1.5-0.5c0.5,0,0.8,0.1,1.1,0.3l-0.3,1.7c0,0.1-0.1,0.2-0.1,0.2s-0.1,0.1-0.2,0.1s-0.2,0-0.4-0.1
		c-0.2,0-0.4-0.1-0.6-0.1c-0.5,0-0.9,0.1-1.2,0.4c-0.3,0.3-0.6,0.6-0.8,1.1v5.8L-1119.2,862.6L-1119.2,862.6z"/>
	<path class="st0" d="M-1108.8,862.8c-0.8,0-1.4-0.2-1.8-0.7c-0.4-0.5-0.6-1.1-0.6-1.9V855h-0.9c-0.1,0-0.2,0-0.3-0.1
		c-0.1-0.1-0.1-0.2-0.1-0.4v-0.9l1.5-0.2l0.5-2.5c0-0.1,0.1-0.2,0.2-0.3s0.2-0.1,0.3-0.1h1.2v2.9h2.4v1.6h-2.4v5
		c0,0.3,0.1,0.5,0.2,0.7c0.1,0.2,0.3,0.2,0.6,0.2c0.1,0,0.3,0,0.3,0c0.1,0,0.2-0.1,0.2-0.1s0.1-0.1,0.2-0.1s0.1,0,0.2,0
		c0.1,0,0.1,0,0.2,0c0.1,0,0.1,0.1,0.1,0.1l0.7,1.1c-0.3,0.3-0.7,0.5-1.1,0.6C-1107.9,862.7-1108.3,862.8-1108.8,862.8z"/>
	<path class="st0" d="M-1104.5,862.6V855l-0.8-0.1c-0.2,0-0.3-0.1-0.4-0.2c-0.1-0.1-0.2-0.2-0.2-0.4v-0.9h1.4v-0.7
		c0-0.5,0.1-1,0.2-1.4c0.2-0.4,0.4-0.8,0.7-1.1c0.3-0.3,0.7-0.5,1.1-0.7s0.9-0.2,1.4-0.2c0.4,0,0.8,0.1,1.2,0.2v1.1
		c0,0.2-0.1,0.3-0.2,0.3c-0.2,0-0.3,0.1-0.5,0.1c-0.3,0-0.5,0-0.7,0.1c-0.2,0.1-0.4,0.2-0.5,0.3s-0.3,0.3-0.3,0.6
		c-0.1,0.2-0.1,0.5-0.1,0.9v0.6h2.4v1.6h-2.3v7.6L-1104.5,862.6L-1104.5,862.6z"/>
	<path class="st0" d="M-1094.7,853.3c0.7,0,1.3,0.1,1.9,0.3c0.6,0.2,1,0.5,1.4,0.9c0.4,0.4,0.7,0.9,0.9,1.5c0.2,0.6,0.3,1.2,0.3,2
		c0,0.7-0.1,1.4-0.3,2c-0.2,0.6-0.5,1.1-0.9,1.5c-0.4,0.4-0.9,0.7-1.4,1c-0.6,0.2-1.2,0.3-1.9,0.3c-0.7,0-1.3-0.1-1.9-0.3
		c-0.6-0.2-1-0.5-1.4-1c-0.4-0.4-0.7-0.9-0.9-1.5c-0.2-0.6-0.3-1.2-0.3-2c0-0.7,0.1-1.4,0.3-2c0.2-0.6,0.5-1.1,0.9-1.5
		c0.4-0.4,0.9-0.7,1.4-0.9C-1095.9,853.4-1095.3,853.3-1094.7,853.3z M-1094.7,861.1c0.8,0,1.3-0.3,1.7-0.8s0.6-1.3,0.6-2.3
		s-0.2-1.8-0.6-2.3c-0.4-0.5-0.9-0.8-1.7-0.8c-0.8,0-1.4,0.3-1.7,0.8c-0.4,0.5-0.6,1.3-0.6,2.3s0.2,1.7,0.6,2.3
		C-1096,860.8-1095.4,861.1-1094.7,861.1z"/>
	<path class="st0" d="M-1085.9,849.3v13.3h-2.2v-13.4L-1085.9,849.3L-1085.9,849.3z"/>
	<path class="st0" d="M-1080.8,850.7c0,0.2,0,0.4-0.1,0.5c-0.1,0.1-0.2,0.3-0.3,0.4c-0.1,0.1-0.3,0.2-0.5,0.3
		c-0.2,0.1-0.4,0.1-0.6,0.1c-0.2,0-0.4,0-0.5-0.1c-0.2-0.1-0.3-0.2-0.4-0.3c-0.1-0.1-0.2-0.3-0.3-0.4c-0.1-0.2-0.1-0.3-0.1-0.5
		s0-0.4,0.1-0.6s0.2-0.3,0.3-0.4c0.1-0.1,0.3-0.2,0.4-0.3c0.2-0.1,0.4-0.1,0.5-0.1c0.2,0,0.4,0,0.6,0.1c0.2,0.1,0.3,0.2,0.5,0.3
		c0.2,0.1,0.2,0.3,0.3,0.4C-1080.8,850.3-1080.8,850.5-1080.8,850.7z M-1081.2,853.4v9.2h-2.2v-9.2H-1081.2z"/>
	<path class="st0" d="M-1074.7,853.3c0.7,0,1.3,0.1,1.9,0.3c0.6,0.2,1,0.5,1.4,0.9c0.4,0.4,0.7,0.9,0.9,1.5c0.2,0.6,0.3,1.2,0.3,2
		c0,0.7-0.1,1.4-0.3,2c-0.2,0.6-0.5,1.1-0.9,1.5c-0.4,0.4-0.9,0.7-1.4,1s-1.2,0.3-1.9,0.3c-0.7,0-1.3-0.1-1.9-0.3
		c-0.6-0.2-1-0.5-1.4-1c-0.4-0.4-0.7-0.9-0.9-1.5c-0.2-0.6-0.3-1.2-0.3-2c0-0.7,0.1-1.4,0.3-2c0.2-0.6,0.5-1.1,0.9-1.5
		c0.4-0.4,0.9-0.7,1.4-0.9C-1076.1,853.4-1075.3,853.3-1074.7,853.3z M-1074.7,861.1c0.8,0,1.3-0.3,1.7-0.8s0.6-1.3,0.6-2.3
		s-0.2-1.8-0.6-2.3s-0.9-0.8-1.7-0.8c-0.8,0-1.4,0.3-1.7,0.8c-0.4,0.5-0.6,1.3-0.6,2.3s0.2,1.7,0.6,2.3
		C-1076,860.8-1075.4,861.1-1074.7,861.1z"/>
</g>
</svg>
