<?xml version="1.0" encoding="utf-8"?>
<!-- Generator: Adobe Illustrator 19.0.0, SVG Export Plug-In . SVG Version: 6.00 Build 0)  -->
<svg version="1.1" id="Warstwa_1" xmlns="http://www.w3.org/2000/svg" xmlns:xlink="http://www.w3.org/1999/xlink" x="0px" y="0px"
	 viewBox="-579.8 394.9 70.1 94.3" style="enable-background:new -579.8 394.9 70.1 94.3;" xml:space="preserve">
<style type="text/css">
	.st0{fill:#FFFFFF;}
</style>
<path class="st0" d="M-526.9,447.9h-36.5c-3.7,0-6.6-3-6.6-6.6v-39.8c0-3.7,3-6.6,6.6-6.6h36.5c3.7,0,6.6,3,6.6,6.6v39.8
	C-520.3,444.9-523.3,447.9-526.9,447.9z M-523.6,401.5c0-1.8-1.5-3.3-3.3-3.3h-36.5c-1.8,0-3.3,1.5-3.3,3.3v39.8
	c0,1.8,1.5,3.3,3.3,3.3h36.5c1.8,0,3.3-1.5,3.3-3.3V401.5z M-528.6,434.6h-33.1c-0.9,0-1.7-0.7-1.7-1.7v-29.8c0-0.9,0.7-1.7,1.7-1.7
	h33.1c0.9,0,1.7,0.7,1.7,1.7V433C-526.9,433.9-527.7,434.6-528.6,434.6z M-561.7,433h25.5l-4.6-5.3l-1-1.1l-13.4-15.1l-6.6,7.6V433z
	 M-528.6,403.1h-33.1v13.4l5.4-6.2c0.3-0.4,0.8-0.6,1.2-0.6c0.5,0,0.9,0.2,1.2,0.6l13.1,14.8l4.3-4.9c0.3-0.4,0.8-0.6,1.2-0.6
	c0.5,0,0.9,0.2,1.2,0.6l5.4,5.9V403.1z M-528.6,428.6l-6.6-7.3l-4.5,5l5.7,6.6h5.4V428.6z M-538.5,416.4c-2.7,0-5-2.2-5-5s2.2-5,5-5
	c2.7,0,5,2.2,5,5S-535.8,416.4-538.5,416.4z M-538.5,408.1c-1.8,0-3.3,1.5-3.3,3.3s1.5,3.3,3.3,3.3c1.8,0,3.3-1.5,3.3-3.3
	S-536.7,408.1-538.5,408.1z"/>
<g>
	<path class="st0" d="M-577.4,484.4v4.6h-2.4v-13h4.2c0.9,0,1.6,0.1,2.3,0.3c0.6,0.2,1.2,0.5,1.6,0.9c0.4,0.4,0.7,0.8,0.9,1.3
		c0.2,0.5,0.3,1.1,0.3,1.7c0,0.6-0.1,1.2-0.3,1.7c-0.2,0.5-0.5,1-0.9,1.4s-0.9,0.7-1.6,0.9c-0.6,0.2-1.4,0.3-2.2,0.3H-577.4z
		 M-577.4,482.6h1.8c0.4,0,0.8-0.1,1.2-0.2c0.3-0.1,0.6-0.3,0.8-0.5c0.2-0.2,0.4-0.5,0.5-0.8c0.1-0.3,0.2-0.6,0.2-1
		c0-0.3-0.1-0.7-0.2-0.9c-0.1-0.3-0.3-0.5-0.5-0.7c-0.2-0.2-0.5-0.3-0.8-0.5c-0.3-0.1-0.7-0.2-1.2-0.2h-1.8V482.6z"/>
	<path class="st0" d="M-565.1,479.7c0.7,0,1.3,0.1,1.9,0.3s1,0.5,1.4,0.9c0.4,0.4,0.7,0.9,0.9,1.5c0.2,0.6,0.3,1.2,0.3,2
		c0,0.7-0.1,1.4-0.3,2c-0.2,0.6-0.5,1.1-0.9,1.5s-0.9,0.7-1.4,1s-1.2,0.3-1.9,0.3s-1.3-0.1-1.9-0.3s-1-0.5-1.4-1
		c-0.4-0.4-0.7-0.9-0.9-1.5s-0.3-1.2-0.3-2c0-0.7,0.1-1.4,0.3-2c0.2-0.6,0.5-1.1,0.9-1.5c0.4-0.4,0.9-0.7,1.4-0.9
		S-565.8,479.7-565.1,479.7z M-565.1,487.5c0.8,0,1.3-0.3,1.7-0.8c0.4-0.5,0.6-1.3,0.6-2.3s-0.2-1.8-0.6-2.3
		c-0.4-0.5-0.9-0.8-1.7-0.8c-0.8,0-1.4,0.3-1.7,0.8c-0.4,0.5-0.6,1.3-0.6,2.3s0.2,1.7,0.6,2.3C-566.4,487.2-565.8,487.5-565.1,487.5
		z"/>
	<path class="st0" d="M-558.8,489v-9.2h1.3c0.2,0,0.4,0,0.5,0.1c0.1,0.1,0.1,0.2,0.2,0.4l0.1,1.1c0.3-0.6,0.7-1,1.2-1.4
		c0.4-0.3,0.9-0.5,1.5-0.5c0.5,0,0.8,0.1,1.1,0.3l-0.3,1.7c0,0.1-0.1,0.2-0.1,0.2s-0.1,0.1-0.2,0.1c-0.1,0-0.2,0-0.4-0.1
		c-0.2,0-0.4-0.1-0.6-0.1c-0.5,0-0.9,0.1-1.2,0.4s-0.6,0.6-0.8,1.1v5.8H-558.8z"/>
	<path class="st0" d="M-548.4,489.2c-0.8,0-1.4-0.2-1.8-0.7s-0.6-1.1-0.6-1.9v-5.2h-0.9c-0.1,0-0.2,0-0.3-0.1
		c-0.1-0.1-0.1-0.2-0.1-0.4v-0.9l1.5-0.2l0.5-2.5c0-0.1,0.1-0.2,0.2-0.3c0.1-0.1,0.2-0.1,0.3-0.1h1.2v2.9h2.4v1.6h-2.4v5
		c0,0.3,0.1,0.5,0.2,0.7s0.3,0.2,0.6,0.2c0.1,0,0.3,0,0.3,0c0.1,0,0.2-0.1,0.2-0.1s0.1-0.1,0.2-0.1c0.1,0,0.1,0,0.2,0
		c0.1,0,0.1,0,0.2,0s0.1,0.1,0.1,0.1l0.7,1.1c-0.3,0.3-0.7,0.5-1.1,0.6C-547.5,489.1-547.9,489.2-548.4,489.2z"/>
	<path class="st0" d="M-544.1,489v-7.6l-0.8-0.1c-0.2,0-0.3-0.1-0.4-0.2s-0.2-0.2-0.2-0.4v-0.9h1.4v-0.7c0-0.5,0.1-1,0.2-1.4
		c0.2-0.4,0.4-0.8,0.7-1.1s0.7-0.5,1.1-0.7c0.4-0.2,0.9-0.2,1.4-0.2c0.4,0,0.8,0.1,1.2,0.2l0,1.1c0,0.2-0.1,0.3-0.2,0.3
		c-0.2,0-0.3,0.1-0.5,0.1c-0.3,0-0.5,0-0.7,0.1s-0.4,0.2-0.5,0.3c-0.1,0.1-0.3,0.3-0.3,0.6c-0.1,0.2-0.1,0.5-0.1,0.9v0.6h2.4v1.6
		h-2.3v7.6H-544.1z"/>
	<path class="st0" d="M-534.2,479.7c0.7,0,1.3,0.1,1.9,0.3c0.6,0.2,1,0.5,1.4,0.9c0.4,0.4,0.7,0.9,0.9,1.5c0.2,0.6,0.3,1.2,0.3,2
		c0,0.7-0.1,1.4-0.3,2c-0.2,0.6-0.5,1.1-0.9,1.5c-0.4,0.4-0.9,0.7-1.4,1c-0.6,0.2-1.2,0.3-1.9,0.3c-0.7,0-1.3-0.1-1.9-0.3
		c-0.6-0.2-1-0.5-1.4-1c-0.4-0.4-0.7-0.9-0.9-1.5c-0.2-0.6-0.3-1.2-0.3-2c0-0.7,0.1-1.4,0.3-2c0.2-0.6,0.5-1.1,0.9-1.5
		c0.4-0.4,0.9-0.7,1.4-0.9C-535.5,479.8-534.9,479.7-534.2,479.7z M-534.2,487.5c0.8,0,1.3-0.3,1.7-0.8c0.4-0.5,0.6-1.3,0.6-2.3
		s-0.2-1.8-0.6-2.3c-0.4-0.5-0.9-0.8-1.7-0.8c-0.8,0-1.4,0.3-1.7,0.8c-0.4,0.5-0.6,1.3-0.6,2.3s0.2,1.7,0.6,2.3
		C-535.6,487.2-535,487.5-534.2,487.5z"/>
	<path class="st0" d="M-525.5,475.7V489h-2.2v-13.4H-525.5z"/>
	<path class="st0" d="M-520.3,477.1c0,0.2,0,0.4-0.1,0.5s-0.2,0.3-0.3,0.4s-0.3,0.2-0.5,0.3c-0.2,0.1-0.4,0.1-0.6,0.1
		c-0.2,0-0.4,0-0.5-0.1c-0.2-0.1-0.3-0.2-0.4-0.3s-0.2-0.3-0.3-0.4c-0.1-0.2-0.1-0.3-0.1-0.5c0-0.2,0-0.4,0.1-0.6
		c0.1-0.2,0.2-0.3,0.3-0.4s0.3-0.2,0.4-0.3c0.2-0.1,0.4-0.1,0.5-0.1c0.2,0,0.4,0,0.6,0.1c0.2,0.1,0.3,0.2,0.5,0.3s0.2,0.3,0.3,0.4
		C-520.4,476.7-520.3,476.9-520.3,477.1z M-520.7,479.8v9.2h-2.2v-9.2H-520.7z"/>
	<path class="st0" d="M-514.2,479.7c0.7,0,1.3,0.1,1.9,0.3s1,0.5,1.4,0.9c0.4,0.4,0.7,0.9,0.9,1.5c0.2,0.6,0.3,1.2,0.3,2
		c0,0.7-0.1,1.4-0.3,2s-0.5,1.1-0.9,1.5s-0.9,0.7-1.4,1s-1.2,0.3-1.9,0.3c-0.7,0-1.3-0.1-1.9-0.3s-1-0.5-1.4-1
		c-0.4-0.4-0.7-0.9-0.9-1.5s-0.3-1.2-0.3-2c0-0.7,0.1-1.4,0.3-2c0.2-0.6,0.5-1.1,0.9-1.5c0.4-0.4,0.9-0.7,1.4-0.9
		S-514.9,479.7-514.2,479.7z M-514.2,487.5c0.8,0,1.3-0.3,1.7-0.8c0.4-0.5,0.6-1.3,0.6-2.3s-0.2-1.8-0.6-2.3
		c-0.4-0.5-0.9-0.8-1.7-0.8c-0.8,0-1.4,0.3-1.7,0.8c-0.4,0.5-0.6,1.3-0.6,2.3s0.2,1.7,0.6,2.3C-515.6,487.2-515,487.5-514.2,487.5z"
		/>
</g>
</svg>
