<?xml version="1.0" encoding="utf-8"?>
<!-- Generator: Adobe Illustrator 19.0.0, SVG Export Plug-In . SVG Version: 6.00 Build 0)  -->
<svg version="1.1" id="Warstwa_1" xmlns="http://www.w3.org/2000/svg" xmlns:xlink="http://www.w3.org/1999/xlink" x="0px" y="0px"
	 viewBox="-567 392.4 56.5 97.8" style="enable-background:new -567 392.4 56.5 97.8;" xml:space="preserve">
<style type="text/css">
	.st0{fill:#FFFFFF;}
</style>
<path class="st0" d="M-513.3,426.5l-5.4,1.1c-0.3,0.8-0.6,1.5-0.9,2.3l3.1,4.6c0.9,1.4,0.7,3.3-0.4,4.5l-3.4,3.4
	c-0.7,0.7-1.6,1-2.5,1c-0.7,0-1.4-0.2-2-0.6l-4.6-3.1c-0.7,0.4-1.5,0.7-2.3,0.9l-1.1,5.4c-0.3,1.7-1.8,2.8-3.5,2.8h-4.8
	c-1.7,0-3.1-1.2-3.5-2.8l-1.1-5.4c-0.8-0.3-1.5-0.6-2.3-0.9l-4.6,3.1c-0.6,0.4-1.3,0.6-2,0.6c-0.9,0-1.8-0.4-2.5-1l-3.4-3.4
	c-1.2-1.2-1.4-3.1-0.4-4.5l3.1-4.6c-0.4-0.7-0.7-1.5-0.9-2.3l-5.4-1.1c-1.7-0.3-2.8-1.8-2.8-3.5v-4.8c0-1.7,1.2-3.1,2.8-3.5l5.4-1.1
	c0.3-0.8,0.6-1.5,0.9-2.3l-3.1-4.6c-0.9-1.4-0.7-3.3,0.4-4.5l3.4-3.4c0.7-0.7,1.6-1,2.5-1c0.7,0,1.4,0.2,2,0.6l4.6,3.1
	c0.7-0.4,1.5-0.7,2.3-0.9l1.1-5.4c0.3-1.7,1.8-2.8,3.5-2.8h4.8c1.7,0,3.1,1.2,3.5,2.8l1.1,5.4c0.8,0.3,1.5,0.6,2.3,0.9l4.6-3.1
	c0.6-0.4,1.3-0.6,2-0.6c0.9,0,1.8,0.4,2.5,1l3.4,3.4c1.2,1.2,1.4,3.1,0.4,4.5l-3.1,4.6c0.4,0.7,0.7,1.5,0.9,2.3l5.4,1.1
	c1.7,0.3,2.8,1.8,2.8,3.5v4.8C-510.5,424.7-511.7,426.2-513.3,426.5z M-514,418.2l-5.4-1.1c-1.2-0.2-2.2-1.1-2.6-2.3
	c-0.2-0.7-0.5-1.3-0.8-1.9c-0.5-1.1-0.5-2.5,0.2-3.5l3.1-4.6l-3.4-3.4l-4.6,3.1c-0.6,0.4-1.3,0.6-2,0.6c-0.5,0-1.1-0.1-1.5-0.4
	c-0.6-0.3-1.2-0.6-1.9-0.8c-1.2-0.4-2.1-1.4-2.3-2.6l-1.1-5.4l-4.8,0l-1.1,5.4c-0.2,1.2-1.1,2.2-2.3,2.6c-0.7,0.2-1.3,0.5-1.9,0.8
	c-0.5,0.2-1,0.4-1.5,0.4c-0.7,0-1.4-0.2-2-0.6l-4.6-3.1l-3.4,3.4l3.1,4.6c0.7,1,0.8,2.4,0.2,3.5c-0.3,0.6-0.6,1.2-0.8,1.9
	c-0.4,1.2-1.4,2.1-2.6,2.3l-5.4,1.1l0,4.8l5.4,1.1c1.2,0.2,2.2,1.1,2.6,2.3c0.2,0.7,0.5,1.3,0.8,1.9c0.5,1.1,0.5,2.5-0.2,3.5
	l-3.1,4.6l3.4,3.4l4.6-3.1c0.6-0.4,1.3-0.6,2-0.6c0.5,0,1.1,0.1,1.5,0.4c0.6,0.3,1.2,0.6,1.9,0.8c1.2,0.4,2.1,1.4,2.3,2.6l1.1,5.4
	h4.8l1.1-5.4c0.2-1.2,1.1-2.2,2.3-2.6c0.7-0.2,1.3-0.5,1.9-0.8c0.5-0.2,1-0.4,1.5-0.4c0.7,0,1.4,0.2,2,0.6l4.6,3.1l3.4-3.4l-3.1-4.6
	c-0.7-1-0.8-2.4-0.2-3.5c0.3-0.6,0.6-1.2,0.8-1.9c0.4-1.2,1.4-2.1,2.6-2.3l5.4-1.1L-514,418.2z M-538.8,433
	c-6.8,0-12.4-5.5-12.4-12.4c0-6.8,5.5-12.4,12.4-12.4c6.8,0,12.4,5.5,12.4,12.4C-526.4,427.5-531.9,433-538.8,433z M-538.8,409.8
	c-6,0-10.8,4.8-10.8,10.8c0,6,4.8,10.8,10.8,10.8s10.8-4.8,10.8-10.8C-527.9,414.7-532.8,409.8-538.8,409.8z M-538.8,427.7
	c-3.9,0-7.1-3.2-7.1-7.1c0-3.9,3.2-7.1,7.1-7.1s7.1,3.2,7.1,7.1C-531.7,424.5-534.8,427.7-538.8,427.7z M-538.8,415.3
	c-2.9,0-5.3,2.4-5.3,5.3c0,2.9,2.4,5.3,5.3,5.3s5.3-2.4,5.3-5.3C-533.5,417.7-535.8,415.3-538.8,415.3z"/>
<g>
	<path class="st0" d="M-551.2,490h-1.9c-0.2,0-0.4-0.1-0.5-0.2c-0.1-0.1-0.2-0.2-0.3-0.4l-1-2.7h-5.4l-1,2.7c0,0.1-0.1,0.3-0.3,0.4
		c-0.1,0.1-0.3,0.2-0.5,0.2h-1.9l5.1-13h2.5L-551.2,490z M-559.7,485.1h4.1l-1.6-4.3c-0.1-0.2-0.2-0.4-0.2-0.7
		c-0.1-0.3-0.2-0.5-0.3-0.9c-0.1,0.3-0.2,0.6-0.2,0.9s-0.2,0.5-0.2,0.7L-559.7,485.1z"/>
	<path class="st0" d="M-550,490v-13.4h2.2v5.3c0.4-0.4,0.8-0.7,1.2-0.9c0.5-0.2,1-0.3,1.6-0.3c0.5,0,1,0.1,1.4,0.3s0.8,0.5,1.1,0.9
		c0.3,0.4,0.5,0.9,0.7,1.5s0.2,1.3,0.2,2c0,0.7-0.1,1.3-0.3,1.9c-0.2,0.6-0.5,1.1-0.8,1.5c-0.3,0.4-0.8,0.8-1.3,1
		c-0.5,0.2-1,0.4-1.6,0.4c-0.3,0-0.5,0-0.8-0.1c-0.2-0.1-0.4-0.1-0.6-0.2c-0.2-0.1-0.4-0.2-0.5-0.4c-0.2-0.1-0.3-0.3-0.5-0.5
		l-0.1,0.6c0,0.2-0.1,0.3-0.2,0.3c-0.1,0.1-0.2,0.1-0.4,0.1H-550z M-545.7,482.4c-0.5,0-0.9,0.1-1.2,0.3c-0.3,0.2-0.6,0.5-0.9,0.8
		v4.1c0.3,0.3,0.5,0.5,0.8,0.7c0.3,0.1,0.6,0.2,1,0.2c0.3,0,0.6-0.1,0.9-0.2s0.5-0.3,0.7-0.6c0.2-0.3,0.3-0.6,0.4-1
		c0.1-0.4,0.2-0.9,0.2-1.4c0-0.5,0-1-0.1-1.4c-0.1-0.4-0.2-0.7-0.4-0.9c-0.2-0.2-0.4-0.4-0.6-0.5
		C-545.1,482.4-545.4,482.4-545.7,482.4z"/>
	<path class="st0" d="M-535.8,480.7c0.7,0,1.3,0.1,1.9,0.3c0.6,0.2,1,0.5,1.4,0.9c0.4,0.4,0.7,0.9,0.9,1.5c0.2,0.6,0.3,1.2,0.3,2
		c0,0.7-0.1,1.4-0.3,2c-0.2,0.6-0.5,1.1-0.9,1.5c-0.4,0.4-0.9,0.7-1.4,1c-0.6,0.2-1.2,0.3-1.9,0.3c-0.7,0-1.3-0.1-1.9-0.3
		c-0.6-0.2-1-0.5-1.4-1c-0.4-0.4-0.7-0.9-0.9-1.5s-0.3-1.2-0.3-2c0-0.7,0.1-1.4,0.3-2c0.2-0.6,0.5-1.1,0.9-1.5
		c0.4-0.4,0.9-0.7,1.4-0.9C-537.1,480.8-536.5,480.7-535.8,480.7z M-535.8,488.5c0.8,0,1.3-0.3,1.7-0.8c0.4-0.5,0.6-1.3,0.6-2.3
		s-0.2-1.8-0.6-2.3c-0.4-0.5-0.9-0.8-1.7-0.8c-0.8,0-1.4,0.3-1.7,0.8c-0.4,0.5-0.6,1.3-0.6,2.3s0.2,1.7,0.6,2.3
		C-537.2,488.2-536.6,488.5-535.8,488.5z"/>
	<path class="st0" d="M-527.5,480.8v5.9c0,0.6,0.1,1,0.4,1.3c0.3,0.3,0.7,0.5,1.2,0.5c0.4,0,0.7-0.1,1.1-0.3s0.7-0.4,1-0.7v-6.7h2.2
		v9.2h-1.4c-0.3,0-0.5-0.1-0.6-0.4l-0.2-0.7c-0.2,0.2-0.4,0.4-0.6,0.5s-0.4,0.3-0.7,0.4c-0.2,0.1-0.5,0.2-0.7,0.3
		c-0.3,0.1-0.6,0.1-0.9,0.1c-0.5,0-0.9-0.1-1.3-0.3c-0.4-0.2-0.7-0.4-1-0.7c-0.3-0.3-0.5-0.7-0.6-1.1c-0.1-0.4-0.2-0.9-0.2-1.4v-5.9
		H-527.5z"/>
	<path class="st0" d="M-516.3,490.2c-0.8,0-1.4-0.2-1.8-0.7c-0.4-0.5-0.6-1.1-0.6-1.9v-5.2h-0.9c-0.1,0-0.2,0-0.3-0.1
		c-0.1-0.1-0.1-0.2-0.1-0.4v-0.9l1.5-0.2l0.5-2.5c0-0.1,0.1-0.2,0.2-0.3c0.1-0.1,0.2-0.1,0.3-0.1h1.2v2.9h2.4v1.6h-2.4v5
		c0,0.3,0.1,0.5,0.2,0.7c0.1,0.2,0.3,0.2,0.6,0.2c0.1,0,0.3,0,0.3,0c0.1,0,0.2-0.1,0.2-0.1c0.1,0,0.1-0.1,0.2-0.1s0.1,0,0.2,0
		c0.1,0,0.1,0,0.2,0s0.1,0.1,0.1,0.1l0.7,1.1c-0.3,0.3-0.7,0.5-1.1,0.6C-515.4,490.1-515.8,490.2-516.3,490.2z"/>
</g>
</svg>
