<?xml version="1.0" encoding="utf-8"?>
<!-- Generator: Adobe Illustrator 19.0.0, SVG Export Plug-In . SVG Version: 6.00 Build 0)  -->
<svg version="1.1" id="Warstwa_1" xmlns="http://www.w3.org/2000/svg" xmlns:xlink="http://www.w3.org/1999/xlink" x="0px" y="0px"
	 viewBox="-957.5 365.6 97.5 123.5" style="enable-background:new -957.5 365.6 97.5 123.5;" xml:space="preserve">
<style type="text/css">
	.st0{fill:#FFFFFF;}
</style>
<path class="st0" d="M-883.4,413.7l-5.4,1.1c-0.3,0.8-0.6,1.5-0.9,2.3l3.1,4.6c0.9,1.4,0.7,3.3-0.4,4.5l-3.4,3.4
	c-0.7,0.7-1.6,1-2.5,1c-0.7,0-1.4-0.2-2-0.6l-4.6-3.1c-0.7,0.4-1.5,0.7-2.3,0.9l-1.1,5.4c-0.3,1.7-1.8,2.8-3.5,2.8h-4.8
	c-1.7,0-3.1-1.2-3.5-2.8l-1.1-5.4c-0.8-0.3-1.5-0.6-2.3-0.9l-4.6,3.1c-0.6,0.4-1.3,0.6-2,0.6c-0.9,0-1.8-0.4-2.5-1l-3.4-3.4
	c-1.2-1.2-1.4-3.1-0.4-4.5l3.1-4.6c-0.4-0.7-0.7-1.5-0.9-2.3l-5.4-1.1c-1.7-0.3-2.8-1.8-2.8-3.5v-4.8c0-1.7,1.2-3.1,2.8-3.5l5.4-1.1
	c0.3-0.8,0.6-1.5,0.9-2.3l-3.1-4.6c-0.9-1.4-0.7-3.3,0.4-4.5l3.4-3.4c0.7-0.7,1.6-1,2.5-1c0.7,0,1.4,0.2,2,0.6l4.6,3.1
	c0.7-0.4,1.5-0.7,2.3-0.9l1.1-5.4c0.3-1.7,1.8-2.8,3.5-2.8h4.8c1.7,0,3.1,1.2,3.5,2.8l1.1,5.4c0.8,0.3,1.5,0.6,2.3,0.9l4.6-3.1
	c0.6-0.4,1.3-0.6,2-0.6c0.9,0,1.8,0.4,2.5,1l3.4,3.4c1.2,1.2,1.4,3.1,0.4,4.5l-3.1,4.6c0.4,0.7,0.7,1.5,0.9,2.3l5.4,1.1
	c1.7,0.3,2.8,1.8,2.8,3.5v4.8C-880.6,411.9-881.8,413.4-883.4,413.7z M-884.1,405.4l-5.4-1.1c-1.2-0.2-2.2-1.1-2.6-2.3
	c-0.2-0.7-0.5-1.3-0.8-1.9c-0.5-1.1-0.5-2.5,0.2-3.5l3.1-4.6l-3.4-3.4l-4.6,3.1c-0.6,0.4-1.3,0.6-2,0.6c-0.5,0-1.1-0.1-1.5-0.4
	c-0.6-0.3-1.2-0.6-1.9-0.8c-1.2-0.4-2.1-1.4-2.3-2.6l-1.1-5.4h-4.8l-1.1,5.4c-0.2,1.2-1.1,2.2-2.3,2.6c-0.7,0.2-1.3,0.5-1.9,0.8
	c-0.5,0.2-1,0.4-1.5,0.4c-0.7,0-1.4-0.2-2-0.6l-4.6-3.1l-3.4,3.4l3.1,4.6c0.7,1,0.8,2.4,0.2,3.5c-0.3,0.6-0.6,1.2-0.8,1.9
	c-0.4,1.2-1.4,2.1-2.6,2.3l-5.4,1.1v4.8l5.4,1.1c1.2,0.2,2.2,1.1,2.6,2.3c0.2,0.7,0.5,1.3,0.8,1.9c0.5,1.1,0.5,2.5-0.2,3.5l-3.1,4.6
	l3.4,3.4l4.6-3.1c0.6-0.4,1.3-0.6,2-0.6c0.5,0,1.1,0.1,1.5,0.4c0.6,0.3,1.2,0.6,1.9,0.8c1.2,0.4,2.1,1.4,2.3,2.6l1.1,5.4h4.8
	l1.1-5.4c0.2-1.2,1.1-2.2,2.3-2.6c0.7-0.2,1.3-0.5,1.9-0.8c0.5-0.2,1-0.4,1.5-0.4c0.7,0,1.4,0.2,2,0.6l4.6,3.1l3.4-3.4l-3.1-4.6
	c-0.7-1-0.8-2.4-0.2-3.5c0.3-0.6,0.6-1.2,0.8-1.9c0.4-1.2,1.4-2.1,2.6-2.3l5.4-1.1V405.4z M-908.9,420.2c-6.8,0-12.4-5.5-12.4-12.4
	c0-6.8,5.5-12.4,12.4-12.4c6.8,0,12.4,5.5,12.4,12.4C-896.5,414.7-902,420.2-908.9,420.2z M-908.9,397c-6,0-10.8,4.8-10.8,10.8
	s4.8,10.8,10.8,10.8s10.8-4.8,10.8-10.8C-898,401.9-902.9,397-908.9,397z M-908.9,414.9c-3.9,0-7.1-3.2-7.1-7.1s3.2-7.1,7.1-7.1
	s7.1,3.2,7.1,7.1S-904.9,414.9-908.9,414.9z M-908.9,402.5c-2.9,0-5.3,2.4-5.3,5.3s2.4,5.3,5.3,5.3s5.3-2.4,5.3-5.3
	C-903.6,404.9-905.9,402.5-908.9,402.5z"/>
<g>
	<path class="st0" d="M-921.2,477.2h-1.9c-0.2,0-0.4-0.1-0.5-0.2s-0.2-0.2-0.3-0.4l-1-2.7h-5.4l-1,2.7c0,0.1-0.1,0.3-0.3,0.4
		c-0.1,0.1-0.3,0.2-0.5,0.2h-1.9l5.1-13h2.5L-921.2,477.2z M-929.7,472.3h4.1l-1.6-4.3c-0.1-0.2-0.2-0.4-0.2-0.7
		c-0.1-0.3-0.2-0.5-0.3-0.9c-0.1,0.3-0.2,0.6-0.2,0.9s-0.2,0.5-0.2,0.7L-929.7,472.3z"/>
	<path class="st0" d="M-920,477.2v-13.4h2.2v5.3c0.4-0.4,0.8-0.7,1.2-0.9c0.5-0.2,1-0.3,1.6-0.3c0.5,0,1,0.1,1.4,0.3
		s0.8,0.5,1.1,0.9s0.5,0.9,0.7,1.5s0.2,1.3,0.2,2s-0.1,1.3-0.3,1.9s-0.5,1.1-0.8,1.5s-0.8,0.8-1.3,1s-1,0.4-1.6,0.4
		c-0.3,0-0.5,0-0.8-0.1c-0.2-0.1-0.4-0.1-0.6-0.2c-0.2-0.1-0.4-0.2-0.5-0.4c-0.2-0.1-0.3-0.3-0.5-0.5l-0.1,0.6
		c0,0.2-0.1,0.3-0.2,0.3c-0.1,0.1-0.2,0.1-0.4,0.1L-920,477.2L-920,477.2z M-915.7,469.6c-0.5,0-0.9,0.1-1.2,0.3
		c-0.3,0.2-0.6,0.5-0.9,0.8v4.1c0.3,0.3,0.5,0.5,0.8,0.7c0.3,0.1,0.6,0.2,1,0.2c0.3,0,0.6-0.1,0.9-0.2s0.5-0.3,0.7-0.6
		c0.2-0.3,0.3-0.6,0.4-1c0.1-0.4,0.2-0.9,0.2-1.4s0-1-0.1-1.4s-0.2-0.7-0.4-0.9c-0.2-0.2-0.4-0.4-0.6-0.5
		C-915.1,469.6-915.4,469.6-915.7,469.6z"/>
	<path class="st0" d="M-905.8,467.9c0.7,0,1.3,0.1,1.9,0.3c0.6,0.2,1,0.5,1.4,0.9s0.7,0.9,0.9,1.5s0.3,1.2,0.3,2
		c0,0.7-0.1,1.4-0.3,2s-0.5,1.1-0.9,1.5s-0.9,0.7-1.4,1c-0.6,0.2-1.2,0.3-1.9,0.3s-1.3-0.1-1.9-0.3c-0.6-0.2-1-0.5-1.4-1
		c-0.4-0.4-0.7-0.9-0.9-1.5s-0.3-1.2-0.3-2c0-0.7,0.1-1.4,0.3-2s0.5-1.1,0.9-1.5s0.9-0.7,1.4-0.9
		C-907.1,468-906.5,467.9-905.8,467.9z M-905.8,475.7c0.8,0,1.3-0.3,1.7-0.8s0.6-1.3,0.6-2.3s-0.2-1.8-0.6-2.3
		c-0.4-0.5-0.9-0.8-1.7-0.8s-1.4,0.3-1.7,0.8c-0.4,0.5-0.6,1.3-0.6,2.3s0.2,1.7,0.6,2.3C-907.2,475.4-906.6,475.7-905.8,475.7z"/>
	<path class="st0" d="M-897.5,468v5.9c0,0.6,0.1,1,0.4,1.3c0.3,0.3,0.7,0.5,1.2,0.5c0.4,0,0.7-0.1,1.1-0.3s0.7-0.4,1-0.7V468h2.2
		v9.2h-1.4c-0.3,0-0.5-0.1-0.6-0.4l-0.2-0.7c-0.2,0.2-0.4,0.4-0.6,0.5s-0.4,0.3-0.7,0.4c-0.2,0.1-0.5,0.2-0.7,0.3
		c-0.3,0.1-0.6,0.1-0.9,0.1c-0.5,0-0.9-0.1-1.3-0.3c-0.4-0.2-0.7-0.4-1-0.7c-0.3-0.3-0.5-0.7-0.6-1.1s-0.2-0.9-0.2-1.4V468
		L-897.5,468L-897.5,468z"/>
	<path class="st0" d="M-886.3,477.4c-0.8,0-1.4-0.2-1.8-0.7c-0.4-0.5-0.6-1.1-0.6-1.9v-5.2h-0.9c-0.1,0-0.2,0-0.3-0.1
		s-0.1-0.2-0.1-0.4v-0.9l1.5-0.2l0.5-2.5c0-0.1,0.1-0.2,0.2-0.3c0.1-0.1,0.2-0.1,0.3-0.1h1.2v2.9h2.4v1.6h-2.4v5
		c0,0.3,0.1,0.5,0.2,0.7c0.1,0.2,0.3,0.2,0.6,0.2c0.1,0,0.3,0,0.3,0c0.1,0,0.2-0.1,0.2-0.1c0.1,0,0.1-0.1,0.2-0.1s0.1,0,0.2,0
		c0.1,0,0.1,0,0.2,0s0.1,0.1,0.1,0.1l0.7,1.1c-0.3,0.3-0.7,0.5-1.1,0.6C-885.4,477.3-885.8,477.4-886.3,477.4z"/>
</g>
</svg>
