<?xml version="1.0" encoding="utf-8"?>
<!-- Generator: Adobe Illustrator 19.0.0, SVG Export Plug-In . SVG Version: 6.00 Build 0)  -->
<svg version="1.1" id="Warstwa_1" xmlns="http://www.w3.org/2000/svg" xmlns:xlink="http://www.w3.org/1999/xlink" x="0px" y="0px"
	 viewBox="-553 379.9 84 83" style="enable-background:new -553 379.9 84 83;" xml:space="preserve">
<style type="text/css">
	.st0{fill:#CDCDCD;fill-opacity:0;stroke:#777777;stroke-linejoin:round;}
	.st1{fill:#777777;}
</style>
<path class="st0" d="M-511,383.6c20.9,0,37.9,16.8,37.9,37.6c0,20.8-17,37.6-37.9,37.6s-37.9-16.8-37.9-37.6
	C-548.9,400.5-531.9,383.6-511,383.6z"/>
<g>
	<g>
		<path class="st1" d="M-511.5,416v11c0,5,0.3,6.4,3.3,6.4c1.3,0,4.1-0.3,4.1-0.3l0.2,2.9c0,0-3.1,0.5-4.7,0.5
			c-4.7,0-6.3-1.8-6.3-8.4V416h-3.3v-3h3.3v-7h3.4v7h7.3v3H-511.5z"/>
	</g>
</g>
</svg>
