<?xml version="1.0" encoding="utf-8"?>
<!-- Generator: Adobe Illustrator 19.0.0, SVG Export Plug-In . SVG Version: 6.00 Build 0)  -->
<svg version="1.1" id="Warstwa_1" xmlns="http://www.w3.org/2000/svg" xmlns:xlink="http://www.w3.org/1999/xlink" x="0px" y="0px"
	 viewBox="-975.1 359.9 97.5 123.5" style="enable-background:new -975.1 359.9 97.5 123.5;" xml:space="preserve">
<style type="text/css">
	.st0{fill:#FFFFFF;}
</style>
<path class="st0" d="M-900,418.7c-0.3-0.2-6.7-4.4-16.2-6.5c3.5-4.4,5.7-10.3,6.7-14.3c1.3-5.5,0.8-16.2-4.5-22.9
	c-3.1-3.9-7.4-6-12.4-6s-9.4,2.1-12.4,6c-5.3,6.7-5.8,17.4-4.4,22.9c0.9,4,3.2,9.9,6.7,14.3c-9.5,2.1-15.9,6.2-16.2,6.5
	c-1.3,0.9-1.9,2.5-1.4,3.9c0.4,1.5,1.8,2.5,3.4,2.5h49c1.5,0,2.9-1,3.3-2.5C-898.1,421.1-898.7,419.5-900,418.7z M-918.9,410
	l-0.6,0.7c-4.2,4.8-9.6,4.8-13.8,0l-0.6-0.7c-4.9-6.2-7.3-14.3-6.3-22.1c1-7.5,5.2-15.3,13.7-15.3s12.8,7.8,13.7,15.3
	C-911.6,395.7-914.1,403.9-918.9,410z M-950.9,421.6c0.2-0.2,6.2-4,15-6l4.3-0.9c1.5,1,3.3,1.7,5.1,1.7s3.6-0.6,5.1-1.7l4.3,0.9
	c8.8,1.9,14.7,5.7,15,6H-950.9z"/>
<g>
	<path class="st0" d="M-937.5,453.2v2h-3.9v11h-2.4v-11h-3.9v-2H-937.5z"/>
	<path class="st0" d="M-934.1,456.9c0.6,0,1.1,0.1,1.6,0.3c0.5,0.2,0.9,0.5,1.3,0.8c0.4,0.4,0.6,0.8,0.8,1.3s0.3,1.1,0.3,1.8
		c0,0.2,0,0.3,0,0.4s0,0.2-0.1,0.3c0,0.1-0.1,0.1-0.2,0.1c-0.1,0-0.1,0-0.3,0h-5.7c0.1,0.9,0.3,1.6,0.8,2.1s1,0.7,1.8,0.7
		c0.4,0,0.7,0,0.9-0.1c0.3-0.1,0.5-0.2,0.7-0.3c0.2-0.1,0.4-0.2,0.5-0.3s0.3-0.1,0.4-0.1c0.1,0,0.2,0,0.2,0.1c0.1,0,0.1,0.1,0.2,0.2
		l0.6,0.8c-0.2,0.3-0.5,0.5-0.8,0.7s-0.6,0.4-1,0.5s-0.7,0.2-1,0.2s-0.7,0.1-1,0.1c-0.6,0-1.2-0.1-1.8-0.3c-0.6-0.2-1-0.5-1.4-0.9
		s-0.7-0.9-1-1.5c-0.2-0.6-0.4-1.3-0.4-2.1c0-0.6,0.1-1.2,0.3-1.8c0.2-0.6,0.5-1,0.9-1.4s0.8-0.7,1.4-1
		C-935.4,457-934.7,456.9-934.1,456.9z M-934,458.4c-0.6,0-1.2,0.2-1.5,0.5c-0.4,0.4-0.6,0.9-0.7,1.6h4.2c0-0.3,0-0.6-0.1-0.8
		c-0.1-0.3-0.2-0.5-0.4-0.7s-0.4-0.3-0.6-0.5C-933.4,458.5-933.7,458.4-934,458.4z"/>
	<path class="st0" d="M-921,466.2h-1c-0.2,0-0.4,0-0.5-0.1s-0.2-0.2-0.3-0.4l-0.2-0.7c-0.2,0.2-0.5,0.4-0.7,0.6s-0.5,0.3-0.7,0.4
		s-0.5,0.2-0.8,0.2c-0.3,0.1-0.6,0.1-0.9,0.1c-0.4,0-0.8-0.1-1.1-0.2s-0.6-0.3-0.9-0.5c-0.2-0.2-0.4-0.5-0.6-0.8
		c-0.1-0.3-0.2-0.7-0.2-1.1c0-0.3,0.1-0.7,0.3-1s0.5-0.6,0.9-0.9s1-0.5,1.7-0.7s1.6-0.3,2.6-0.3v-0.5c0-0.6-0.1-1.1-0.4-1.4
		s-0.6-0.4-1.1-0.4c-0.4,0-0.7,0-0.9,0.1s-0.4,0.2-0.6,0.3c-0.2,0.1-0.3,0.2-0.5,0.3s-0.3,0.1-0.5,0.1c-0.1,0-0.3,0-0.4-0.1
		s-0.2-0.2-0.3-0.3l-0.4-0.7c1.1-1,2.3-1.5,3.8-1.5c0.5,0,1,0.1,1.4,0.3s0.8,0.4,1.1,0.7c0.3,0.3,0.5,0.7,0.7,1.1s0.2,0.9,0.2,1.4v6
		H-921z M-925.3,464.8c0.2,0,0.4,0,0.6-0.1c0.2,0,0.4-0.1,0.5-0.2c0.2-0.1,0.3-0.2,0.5-0.3s0.3-0.3,0.5-0.4v-1.5
		c-0.6,0-1.2,0-1.6,0.1c-0.4,0.1-0.8,0.2-1,0.3s-0.5,0.3-0.6,0.4c-0.1,0.2-0.2,0.4-0.2,0.6c0,0.4,0.1,0.7,0.3,0.8
		C-926,464.8-925.7,464.8-925.3,464.8z"/>
	<path class="st0" d="M-918.8,466.2V457h1.4c0.3,0,0.5,0.1,0.6,0.4l0.1,0.7c0.2-0.2,0.3-0.3,0.5-0.5s0.4-0.3,0.6-0.4
		c0.2-0.1,0.4-0.2,0.6-0.3c0.2-0.1,0.5-0.1,0.8-0.1c0.6,0,1.1,0.2,1.4,0.5c0.4,0.3,0.7,0.7,0.8,1.3c0.1-0.3,0.3-0.6,0.5-0.8
		s0.5-0.4,0.7-0.5c0.3-0.1,0.5-0.2,0.8-0.3c0.3-0.1,0.6-0.1,0.9-0.1c0.5,0,1,0.1,1.4,0.2c0.4,0.2,0.7,0.4,1,0.7
		c0.3,0.3,0.5,0.7,0.6,1.1s0.2,0.9,0.2,1.5v5.9h-2.2v-5.9c0-0.6-0.1-1-0.4-1.3c-0.3-0.3-0.6-0.4-1.1-0.4c-0.2,0-0.4,0-0.6,0.1
		s-0.4,0.2-0.5,0.3c-0.1,0.1-0.3,0.3-0.3,0.6c-0.1,0.2-0.1,0.5-0.1,0.8v5.9h-2.2v-5.9c0-0.6-0.1-1.1-0.4-1.3
		c-0.2-0.3-0.6-0.4-1.1-0.4c-0.3,0-0.6,0.1-0.9,0.2c-0.3,0.2-0.5,0.4-0.8,0.7v6.8h-2.3V466.2z"/>
</g>
</svg>
