<?xml version="1.0" encoding="utf-8"?>
<!-- Generator: Adobe Illustrator 19.0.0, SVG Export Plug-In . SVG Version: 6.00 Build 0)  -->
<svg version="1.1" id="Warstwa_1" xmlns="http://www.w3.org/2000/svg" xmlns:xlink="http://www.w3.org/1999/xlink" x="0px" y="0px"
	 viewBox="-530 350.4 129.9 140.5" style="enable-background:new -530 350.4 129.9 140.5;" xml:space="preserve">
<style type="text/css">
	.st0{fill:#FFFFFF;fill-opacity:0.1;stroke:#9F449B;stroke-width:9;stroke-linejoin:round;}
	.st1{fill:#9C4694;}
</style>
<path class="st0" d="M-480.1,481.9c-10-6.1-20.2-11.9-30.4-17.6c-10.2-5.7-15.3-14.4-15-26.1c0.2-11.7,0.2-23.4,0-35.1
	c-0.2-11.7,4.8-20.4,15-26.1c10.2-5.7,20.3-11.5,30.4-17.6c10-6.1,20-6.1,30.1,0c10,6.1,20.2,11.9,30.4,17.6
	c10.2,5.7,15.3,14.4,15,26.1c-0.2,11.7-0.2,23.4,0,35.1s-4.8,20.4-15,26.1s-20.3,11.5-30.4,17.6
	C-460.1,487.9-470.1,487.9-480.1,481.9z"/>
<g>
	<path class="st1" d="M-439.9,420.6c0,1-0.4,1.9-1.1,2.7l-23,23c-1.5,1.5-3.8,1.5-5.3,0s-1.5-3.8,0-5.3l20.4-20.4l-20.3-20.4
		c-1.5-1.5-1.5-3.8,0-5.3s3.8-1.5,5.3,0l23,23C-440.3,418.6-439.9,419.6-439.9,420.6z"/>
</g>
</svg>
