<?xml version="1.0" encoding="utf-8"?>
<!-- Generator: Adobe Illustrator 19.0.0, SVG Export Plug-In . SVG Version: 6.00 Build 0)  -->
<svg version="1.1" id="Warstwa_1" xmlns="http://www.w3.org/2000/svg" xmlns:xlink="http://www.w3.org/1999/xlink" x="0px" y="0px"
	 viewBox="-485.5 351.7 129.9 140.5" style="enable-background:new -485.5 351.7 129.9 140.5;" xml:space="preserve">
<style type="text/css">
	.st0{fill:#FFFFFF;fill-opacity:0.1;stroke:#9F449B;stroke-width:9;stroke-linejoin:round;}
	.st1{fill:#9C4694;}
</style>
<path class="st0" d="M-435.5,483.2c-10-6.1-20.2-11.9-30.4-17.6c-10.2-5.7-15.3-14.4-15-26.1c0.2-11.7,0.2-23.4,0-35.1
	c-0.2-11.7,4.8-20.4,15-26.1c10.2-5.7,20.3-11.5,30.4-17.6c10-6.1,20-6.1,30.1,0c10,6.1,20.2,11.9,30.4,17.6
	c10.2,5.7,15.3,14.4,15,26.1c-0.2,11.7-0.2,23.4,0,35.1c0.2,11.7-4.8,20.4-15,26.1c-10.2,5.7-20.3,11.5-30.4,17.6
	C-415.5,489.2-425.5,489.2-435.5,483.2z"/>
<g>
	<path class="st1" d="M-444.8,421.9c0-1,0.4-1.9,1.1-2.7l23-23c1.5-1.5,3.8-1.5,5.3,0c1.5,1.5,1.5,3.8,0,5.3l-20.4,20.4l20.3,20.4
		c1.5,1.5,1.5,3.8,0,5.3c-1.5,1.5-3.8,1.5-5.3,0l-23-23C-444.4,423.9-444.8,422.9-444.8,421.9z"/>
</g>
</svg>
