<svg xmlns="http://www.w3.org/2000/svg" xmlns:xlink="http://www.w3.org/1999/xlink" preserveAspectRatio="xMidYMid" width="175" height="189" viewBox="0 0 175 189">
  <defs>
    <style>
      .cls-1 {
        fill: #fff;
        stroke: #fff;
        stroke-linejoin: round;
        stroke-width: 4px;
        fill-opacity: 0.1;
        fill-rule: evenodd;
      }
    </style>
  </defs>
  <path d="M67.373,176.276 C53.960,168.219 40.410,160.396 26.725,152.808 C13.041,145.220 6.334,133.603 6.605,117.958 C6.876,102.313 6.876,86.667 6.605,71.022 C6.334,55.376 13.041,43.760 26.725,36.172 C40.410,28.584 53.960,20.761 67.373,12.704 C80.787,4.646 94.201,4.646 107.615,12.704 C121.029,20.761 134.578,28.584 148.263,36.172 C161.948,43.760 168.654,55.376 168.383,71.022 C168.112,86.667 168.112,102.313 168.383,117.958 C168.654,133.603 161.948,145.220 148.263,152.808 C134.578,160.396 121.029,168.219 107.615,176.276 C94.201,184.333 80.787,184.333 67.373,176.276 Z" class="cls-1"/>
</svg>
