<?xml version="1.0" encoding="utf-8"?>
<!-- Generator: Adobe Illustrator 19.0.0, SVG Export Plug-In . SVG Version: 6.00 Build 0)  -->
<svg version="1.1" id="Warstwa_1" xmlns="http://www.w3.org/2000/svg" xmlns:xlink="http://www.w3.org/1999/xlink" x="0px" y="0px"
	 viewBox="-508 326.9 175 189" style="enable-background:new -508 326.9 175 189;" xml:space="preserve">
<style type="text/css">
	.st0{fill:#FFFFFF;fill-opacity:0.1;stroke:#9F449B;stroke-width:4;stroke-linejoin:round;}
</style>
<path class="st0" d="M-440.6,503.2c-13.4-8.1-27-15.9-40.6-23.5c-13.7-7.6-20.4-19.2-20.1-34.9c0.3-15.6,0.3-31.3,0-46.9
	c-0.3-15.6,6.4-27.3,20.1-34.9c13.7-7.6,27.2-15.4,40.6-23.5c13.4-8.1,26.8-8.1,40.2,0c13.4,8.1,27,15.9,40.6,23.5
	c13.7,7.6,20.4,19.2,20.1,34.9c-0.3,15.6-0.3,31.3,0,46.9c0.3,15.6-6.4,27.3-20.1,34.9c-13.7,7.6-27.2,15.4-40.6,23.5
	C-413.8,511.2-427.2,511.2-440.6,503.2z"/>
</svg>
